<svg width="310" height="298" viewBox="0 0 310 298" fill="none" xmlns="http://www.w3.org/2000/svg">
<path d="M285.734 214.128C278.951 206.049 267.817 199.233 270.589 189.052C272.853 180.723 281.511 176.239 288.178 170.77C300.098 160.997 307.005 145.393 306.238 129.984C305.85 122.117 303.365 114.061 297.737 108.577C292.11 103.094 282.911 100.919 276.119 104.875C275.657 95.4726 280.998 86.9258 285.078 78.4438C289.157 69.9618 292.008 59.4715 286.995 51.4939C283.202 45.4783 275.86 42.6556 268.824 41.6005C247.756 38.4446 227.903 50.6563 213.774 66.6255C184.061 100.206 194.124 66.9448 162.212 41.073C130.3 15.2013 158.516 111.345 158.516 111.345C144.845 87.8374 130.684 63.7426 109.315 46.9452C105.088 43.6134 100.389 40.5177 95.0574 39.8097C89.7257 39.1017 83.6732 41.4386 81.5941 46.3945C79.1407 52.2065 82.8046 58.7034 86.7271 63.6408C90.6497 68.5782 95.2561 73.9136 94.8633 80.2115C94.4013 88.0318 85.9094 93.3487 78.0827 93.3209C70.2561 93.2931 63.0116 89.4524 56.0443 85.8615C49.077 82.2707 41.5599 78.8048 33.7748 79.5775C21.6098 80.7899 12.3601 93.0618 12.337 105.306C12.3139 117.55 20.0435 128.906 30.2727 135.62C34.7173 138.535 39.6564 140.738 43.6713 144.213C47.6863 147.688 50.7726 152.959 49.7608 158.188C48.3331 165.545 40.1784 169.025 33.6316 172.662C21.7336 179.316 12.4825 189.866 7.43034 202.541C6.41389 205.109 5.58225 207.941 6.31687 210.602C7.75375 215.748 14.0141 217.543 19.2997 218.242C31.9314 219.88 44.9465 220.056 56.899 224.466C61.6486 226.22 66.5553 229.061 68.1954 233.859C68.1954 233.859 31.4971 260.286 47.2936 272.049C63.0901 283.812 163.58 267.704 189.495 272.049C215.409 276.394 265.53 272.049 265.53 272.049C265.53 272.049 318.015 252.559 285.734 214.128Z" fill="#AD5FDD"/>
<path d="M70.0434 51.3458C68.9068 38.2364 52.3248 26.5245 40.0119 34.1782C38.4318 35.1592 18.8791 48.0326 43.9761 71.0169C54.7966 80.9334 71.2077 64.9781 70.0434 51.3458Z" fill="#AD5FDD"/>
<path d="M233.211 6.80716C224.571 -1.64708 199.973 14.1092 195.413 24.9003C193.403 29.6619 191.093 35.423 192.599 40.6704C194.554 47.431 201.637 49.1987 207.731 47.3431C219.351 43.8078 232.892 34.5252 236.376 22.3552C237.836 17.1263 237.332 10.8376 233.211 6.80716Z" fill="#AD5FDD"/>
<path d="M126.817 14.4562C123.458 10.9996 118.066 9.08846 113.792 12.0546C109.634 14.9329 109.722 21.078 110.979 25.4463C111.614 27.6433 112.819 29.6326 114.471 31.212C116.578 35.062 120.311 38.4817 124.862 37.4683C135.267 35.1407 132.213 20.0091 126.817 14.4562Z" fill="#AD5FDD"/>
<path d="M299.423 183.985C295.759 181.773 287.083 184.448 286.787 184.624C286.727 184.624 279.894 187.081 278.808 190.593C275.966 199.802 286.621 205.767 294.364 203.12C298.259 201.787 301.918 198.876 303.267 194.869C303.966 192.888 303.965 190.727 303.266 188.747C302.566 186.766 301.21 185.086 299.423 183.985Z" fill="#AD5FDD"/>
<path d="M32.7953 228.061C30.6746 228.399 4.40402 235.618 14.1481 255.46C17.4792 262.244 28.3506 259.717 34.3014 256.2C40.0305 252.813 47.1595 245.655 47.3674 238.575C47.6123 230.389 39.915 226.937 32.7953 228.061Z" fill="#AD5FDD"/>
<path d="M38.6258 8.29718C37.6741 5.95109 36.4867 3.83175 34.4676 2.24918C30.6236 -0.740118 24.3909 -0.448592 21.6327 3.91041C20.9558 5.00887 20.5466 6.2515 20.4383 7.53774C20.3299 8.82399 20.5254 10.1177 21.0089 11.3142C21.9607 13.7251 30.9655 19.9675 33.599 19.986C36.4913 19.986 38.9262 17.8018 39.6053 15.0578C40.1228 12.721 39.4806 10.435 38.6258 8.29718Z" fill="#AD5FDD"/>
<path d="M292.738 6.2056C289.264 1.28206 282.851 0.421361 278.004 3.85489C273.846 6.79673 270.517 10.764 268.339 15.3725C267.801 16.5829 267.479 17.8779 267.387 19.1993C266.551 21.6102 266.403 24.1321 267.743 26.4273C270.376 30.9298 276.983 30.9436 281.405 29.7174C286.094 28.3986 290.102 25.3343 292.609 21.1521C295.27 16.5895 295.861 10.6618 292.738 6.2056Z" fill="#AD5FDD"/>
<path d="M309.69 77.5924C309.228 74.2607 305.268 73.002 302.491 73.4971C301.02 73.7834 299.639 74.4181 298.463 75.3481C297.783 75.53 297.134 75.8106 296.536 76.181C292.84 78.467 290.964 84.1031 292.193 88.2446C293.015 91.0211 295.191 93.1913 298.093 93.58C300.92 93.9595 303.434 92.798 305.236 90.6139C306.554 89.1282 307.683 87.4836 308.595 85.7181C309.8 83.191 310.183 80.349 309.69 77.5924Z" fill="#AD5FDD"/>
<path d="M24.0306 138.924C18.9484 136.957 12.1797 136.444 7.1437 138.896C1.65951 141.571 -1.4037 147.924 0.883307 153.792C1.85355 156.277 10.7475 169.988 25.2088 164.944C30.4157 163.12 34.3938 158.521 34.4122 152.885C34.4353 146.406 29.8475 141.164 24.0306 138.924Z" fill="#AD5FDD"/>
<g opacity="0.7">
<path d="M285.734 214.128C278.951 206.049 267.816 199.233 270.588 189.052C272.852 180.723 281.511 176.239 288.178 170.77C300.098 160.997 307.005 145.393 306.238 129.984C305.85 122.117 303.364 114.061 297.737 108.577C292.109 103.094 282.911 100.919 276.119 104.875C275.657 95.4726 280.998 86.9258 285.077 78.4438C289.157 69.9618 292.008 59.4715 286.995 51.4939C283.202 45.4783 275.86 42.6556 268.824 41.6005C247.755 38.4446 227.902 50.6563 213.774 66.6255C184.061 100.206 194.124 66.9448 162.212 41.073C130.3 15.2013 158.516 111.345 158.516 111.345C144.845 87.8374 130.684 63.7426 109.315 46.9452C105.088 43.6134 100.389 40.5177 95.0572 39.8097C89.7254 39.1017 83.6729 41.4386 81.5938 46.3945C79.1405 52.2065 82.8043 58.7034 86.7269 63.6408C90.6495 68.5782 95.2558 73.9136 94.8631 80.2115C94.4011 88.0318 85.9091 93.3487 78.0825 93.3209C70.2558 93.2931 63.0113 89.4524 56.044 85.8615C49.0767 82.2707 41.5596 78.8048 33.7746 79.5775C21.6095 80.7899 12.3599 93.0618 12.3368 105.306C12.3137 117.55 20.0433 128.906 30.2725 135.62C34.7171 138.535 39.6561 140.738 43.6711 144.213C47.6861 147.688 50.7724 152.959 49.7605 158.188C48.3329 165.545 40.1782 169.025 33.6314 172.662C21.7334 179.316 12.4822 189.866 7.4301 202.541C6.41365 205.109 5.58201 207.941 6.31662 210.602C7.75351 215.748 14.0139 217.543 19.2994 218.242C31.9311 219.88 44.9463 220.056 56.8988 224.466C61.6484 226.22 66.555 229.061 68.1952 233.859C68.1952 233.859 31.4968 260.286 47.2933 272.049C63.0899 283.812 163.58 267.704 189.494 272.049C215.409 276.394 265.529 272.049 265.529 272.049C265.529 272.049 318.015 252.559 285.734 214.128Z" fill="white"/>
<path d="M70.0434 51.3458C68.9068 38.2364 52.3248 26.5245 40.0119 34.1782C38.4318 35.1592 18.8791 48.0326 43.9761 71.0169C54.7966 80.9334 71.2077 64.9781 70.0434 51.3458Z" fill="white"/>
<path d="M233.211 6.80716C224.571 -1.64708 199.973 14.1092 195.413 24.9003C193.403 29.6619 191.093 35.423 192.599 40.6704C194.554 47.431 201.636 49.1987 207.73 47.3431C219.35 43.8078 232.892 34.5252 236.376 22.3552C237.836 17.1263 237.332 10.8376 233.211 6.80716Z" fill="white"/>
<path d="M126.817 14.4562C123.458 10.9996 118.066 9.08846 113.792 12.0546C109.634 14.9329 109.722 21.078 110.979 25.4463C111.614 27.6433 112.819 29.6326 114.471 31.212C116.578 35.062 120.311 38.4817 124.862 37.4683C135.267 35.1407 132.213 20.0091 126.817 14.4562Z" fill="white"/>
<path d="M299.423 183.985C295.759 181.773 287.083 184.448 286.787 184.624C286.727 184.624 279.894 187.081 278.808 190.593C275.966 199.802 286.621 205.767 294.364 203.12C298.259 201.787 301.918 198.876 303.267 194.869C303.966 192.888 303.965 190.727 303.266 188.747C302.566 186.766 301.21 185.086 299.423 183.985Z" fill="white"/>
<path d="M32.7953 228.061C30.6746 228.399 4.40402 235.618 14.1481 255.46C17.4792 262.244 28.3506 259.717 34.3014 256.2C40.0305 252.813 47.1595 245.655 47.3674 238.575C47.6123 230.389 39.915 226.937 32.7953 228.061Z" fill="white"/>
<path d="M38.6258 8.29718C37.6741 5.95109 36.4867 3.83175 34.4676 2.24918C30.6236 -0.740118 24.3909 -0.448592 21.6327 3.91041C20.9558 5.00887 20.5466 6.2515 20.4383 7.53774C20.3299 8.82399 20.5254 10.1177 21.0089 11.3142C21.9607 13.7251 30.9655 19.9675 33.599 19.986C36.4913 19.986 38.9262 17.8018 39.6053 15.0578C40.1228 12.721 39.4806 10.435 38.6258 8.29718Z" fill="white"/>
<path d="M292.738 6.2056C289.263 1.28206 282.85 0.421361 278.004 3.85489C273.846 6.79673 270.517 10.764 268.338 15.3725C267.801 16.5829 267.479 17.8779 267.387 19.1993C266.55 21.6102 266.403 24.1321 267.742 26.4273C270.376 30.9298 276.983 30.9436 281.404 29.7174C286.093 28.3986 290.102 25.3343 292.608 21.1521C295.27 16.5895 295.861 10.6618 292.738 6.2056Z" fill="white"/>
<path d="M309.689 77.5924C309.227 74.2607 305.268 73.002 302.491 73.4971C301.02 73.7834 299.639 74.4181 298.462 75.3481C297.783 75.53 297.134 75.8106 296.536 76.181C292.839 78.467 290.964 84.1031 292.193 88.2446C293.015 91.0211 295.191 93.1913 298.093 93.58C300.92 93.9595 303.434 92.798 305.235 90.6139C306.554 89.1282 307.682 87.4836 308.594 85.7181C309.799 83.191 310.182 80.349 309.689 77.5924Z" fill="white"/>
<path d="M24.0306 138.924C18.9484 136.957 12.1797 136.444 7.1437 138.896C1.65951 141.571 -1.4037 147.924 0.883307 153.792C1.85355 156.277 10.7475 169.988 25.2088 164.944C30.4157 163.12 34.3938 158.521 34.4122 152.885C34.4353 146.406 29.8475 141.164 24.0306 138.924Z" fill="white"/>
</g>
<path d="M207.781 89.693C208.183 89.3506 208.428 88.9804 208.327 88.8647L173.832 48.736C173.735 48.6203 173.333 48.8054 172.936 49.1524C172.538 49.4995 172.294 49.8651 172.391 49.9807L206.885 90.1095C206.982 90.2252 207.384 90.0262 207.781 89.693Z" fill="#741787"/>
<path d="M207.777 88.2539L208.012 88.5038C207.555 88.936 207.169 89.4391 206.871 89.9938L206.557 89.8596C206.871 89.2599 207.283 88.7171 207.777 88.2539Z" fill="#AD5FDD"/>
<path d="M206.187 86.403L206.423 86.6528C205.967 87.0861 205.581 87.589 205.282 88.1429L204.968 88.0133C205.282 87.4124 205.695 86.8682 206.187 86.403Z" fill="#AD5FDD"/>
<path d="M204.603 84.5566L204.838 84.8065C204.377 85.2368 203.99 85.7402 203.693 86.2965L203.378 86.1623C203.692 85.561 204.106 85.0179 204.603 84.5566Z" fill="#AD5FDD"/>
<path d="M203.013 82.7057L203.249 82.9555C202.789 83.3869 202.402 83.8901 202.103 84.4456L201.789 84.316C202.103 83.7138 202.517 83.1693 203.013 82.7057Z" fill="#AD5FDD"/>
<path d="M201.424 80.8593L201.66 81.1092C201.199 81.5395 200.812 82.0429 200.514 82.5992L200.2 82.465C200.515 81.8648 200.929 81.322 201.424 80.8593Z" fill="#AD5FDD"/>
<path d="M199.835 79.0084L200.07 79.2583C199.617 79.6984 199.237 80.2094 198.947 80.7714L198.633 80.6418C198.94 80.034 199.346 79.4818 199.835 79.0084Z" fill="#AD5FDD"/>
<path d="M198.245 77.162L198.481 77.4073C198.023 77.8421 197.636 78.3465 197.335 78.902L197.021 78.7678C197.335 78.1666 197.749 77.6236 198.245 77.162Z" fill="#AD5FDD"/>
<path d="M196.637 75.3111L196.873 75.561C196.415 75.9936 196.028 76.4966 195.727 77.051L195.413 76.9168C195.73 76.3174 196.143 75.7748 196.637 75.3111Z" fill="#AD5FDD"/>
<path d="M195.067 73.4648L195.302 73.71C194.844 74.1448 194.458 74.6492 194.156 75.2046L193.842 75.0705C194.156 74.4693 194.57 73.9263 195.067 73.4648Z" fill="#AD5FDD"/>
<path d="M193.477 71.6138L193.713 71.8637C193.254 72.2963 192.868 72.7993 192.567 73.3537L192.253 73.2195C192.57 72.6201 192.983 72.0775 193.477 71.6138Z" fill="#AD5FDD"/>
<path d="M191.888 69.7628L192.124 70.0127C191.666 70.4476 191.279 70.952 190.978 71.5074L190.664 71.3732C190.979 70.7718 191.393 70.2275 191.888 69.7628Z" fill="#AD5FDD"/>
<path d="M190.299 67.9165L190.534 68.1664C190.076 68.599 189.689 69.102 189.388 69.6564L189.074 69.5222C189.391 68.9228 189.805 68.3802 190.299 67.9165Z" fill="#AD5FDD"/>
<path d="M188.709 66.0656L188.945 66.3154C188.488 66.7485 188.103 67.2514 187.804 67.8054L187.485 67.6759C187.801 67.0745 188.214 66.5302 188.709 66.0656Z" fill="#AD5FDD"/>
<path d="M187.12 64.2192L187.355 64.4691C186.898 64.9011 186.512 65.4042 186.214 65.9591L185.896 65.8249C186.212 65.2255 186.626 64.6829 187.12 64.2192Z" fill="#AD5FDD"/>
<path d="M185.549 62.3683L185.785 62.6182C185.32 63.0501 184.928 63.5549 184.625 64.1128L184.306 63.9832C184.629 63.3799 185.049 62.8342 185.549 62.3683Z" fill="#AD5FDD"/>
<path d="M183.941 60.5219L184.177 60.7718C183.719 61.2038 183.334 61.7069 183.036 62.2618L182.717 62.1276C183.035 61.5293 183.449 60.9869 183.941 60.5219Z" fill="#AD5FDD"/>
<path d="M182.352 58.671L182.587 58.9209C182.13 59.3528 181.744 59.856 181.446 60.4109L181.127 60.2813C181.445 59.681 181.858 59.1369 182.352 58.671Z" fill="#AD5FDD"/>
<path d="M180.762 56.8246L180.998 57.0745C180.539 57.5054 180.153 58.0087 179.857 58.5645L179.538 58.4304C179.855 57.8311 180.269 57.2886 180.762 56.8246Z" fill="#AD5FDD"/>
<path d="M179.173 54.9737L179.409 55.2236C178.951 55.6556 178.565 56.1587 178.268 56.7136L177.949 56.584C178.266 55.9837 178.68 55.4396 179.173 54.9737Z" fill="#AD5FDD"/>
<path d="M177.584 53.1274L177.819 53.3772C177.361 53.8053 176.976 54.3055 176.678 54.858L176.359 54.7238C176.677 54.1279 177.091 53.5885 177.584 53.1274Z" fill="#AD5FDD"/>
<path d="M175.994 51.2764L176.23 51.5263C175.772 51.9583 175.387 52.4614 175.089 53.0163L174.77 52.8868C175.087 52.2864 175.501 51.7423 175.994 51.2764Z" fill="#AD5FDD"/>
<path d="M174.405 49.4301L174.641 49.68C174.183 50.1122 173.798 50.6153 173.499 51.17L173.181 51.0358C173.498 50.4366 173.911 49.894 174.405 49.4301Z" fill="#AD5FDD"/>
<path d="M151.258 86.787C151.516 87.2498 151.83 87.5598 151.96 87.4857L198.023 61.4937C198.153 61.4196 198.051 60.9893 197.792 60.5312C197.534 60.0731 197.219 59.7584 197.09 59.8325L151.027 85.8153C150.897 85.8893 150.999 86.3243 151.258 86.787Z" fill="#741787"/>
<path d="M152.667 87.06L152.376 87.2451C152.046 86.7075 151.629 86.2289 151.142 85.8291L151.336 85.5423C151.86 85.9711 152.31 86.484 152.667 87.06Z" fill="#AD5FDD"/>
<path d="M154.792 85.8615L154.501 86.0466C154.167 85.5122 153.751 85.0343 153.267 84.6306L153.457 84.3438C153.981 84.7741 154.432 85.2867 154.792 85.8615Z" fill="#AD5FDD"/>
<path d="M156.904 84.6677L156.612 84.8481C156.279 84.3135 155.863 83.8355 155.379 83.4322L155.568 83.1499C156.096 83.5767 156.547 84.0899 156.904 84.6677Z" fill="#AD5FDD"/>
<path d="M159.033 83.4692L158.742 83.6497C158.411 83.1147 157.994 82.6379 157.509 82.2383L157.703 81.9514C158.227 82.3803 158.677 82.8932 159.033 83.4692Z" fill="#AD5FDD"/>
<path d="M161.159 82.2707L160.868 82.4558C160.534 81.9214 160.117 81.4434 159.634 81.0398L159.823 80.7529C160.349 81.1818 160.8 81.6947 161.159 82.2707Z" fill="#AD5FDD"/>
<path d="M163.28 81.0768L162.988 81.2573C162.656 80.7234 162.239 80.2468 161.755 79.8459L161.944 79.5637C162.471 79.9891 162.923 80.5007 163.28 81.0768Z" fill="#AD5FDD"/>
<path d="M165.4 79.8783L165.114 80.0588C164.778 79.5247 164.36 79.0468 163.875 78.6428L164.07 78.3605C164.595 78.7883 165.045 79.3014 165.4 79.8783Z" fill="#AD5FDD"/>
<path d="M167.53 78.6798L167.239 78.8649C166.906 78.3296 166.49 77.8514 166.005 77.449L166.195 77.162C166.721 77.5899 167.173 78.1029 167.53 78.6798Z" fill="#AD5FDD"/>
<path d="M169.646 77.4813L169.355 77.6664C169.023 77.1309 168.606 76.6527 168.121 76.2504L168.311 75.9635C168.836 76.3925 169.287 76.9053 169.646 77.4813Z" fill="#AD5FDD"/>
<path d="M171.767 76.2875L171.48 76.4679C171.144 75.9338 170.727 75.456 170.242 75.052L170.436 74.7697C170.961 75.1975 171.411 75.7105 171.767 76.2875Z" fill="#AD5FDD"/>
<path d="M173.892 75.089L173.601 75.2694C173.268 74.7356 172.852 74.2591 172.367 73.8581L172.557 73.5712C173.083 73.999 173.535 74.512 173.892 75.089Z" fill="#AD5FDD"/>
<path d="M176.013 73.8905L175.722 74.0756C175.389 73.54 174.973 73.0619 174.488 72.6596L174.682 72.3727C175.205 72.8027 175.655 73.3154 176.013 73.8905Z" fill="#AD5FDD"/>
<path d="M178.157 72.6966L177.87 72.8771C177.534 72.3429 177.116 71.8651 176.632 71.4611L176.826 71.1788C177.352 71.6052 177.802 72.1185 178.157 72.6966Z" fill="#AD5FDD"/>
<path d="M180.259 71.5166L179.968 71.6971C179.634 71.1625 179.218 70.6845 178.734 70.2811L178.924 69.9988C179.45 70.4267 179.901 70.9397 180.259 71.5166Z" fill="#AD5FDD"/>
<path d="M182.379 70.2996L182.088 70.4847C181.757 69.9482 181.341 69.4699 180.855 69.0687L181.049 68.7818C181.573 69.2107 182.023 69.7236 182.379 70.2996Z" fill="#AD5FDD"/>
<path d="M184.5 69.1058L184.214 69.2862C183.879 68.7509 183.461 68.2728 182.975 67.8702L183.169 67.588C183.696 68.0143 184.146 68.5276 184.5 69.1058Z" fill="#AD5FDD"/>
<path d="M186.625 67.9072L186.334 68.0877C186.001 67.5531 185.585 67.0751 185.101 66.6717L185.29 66.3895C185.818 66.8163 186.269 67.3295 186.625 67.9072Z" fill="#AD5FDD"/>
<path d="M188.746 66.7088L188.455 66.8939C188.124 66.3574 187.707 65.879 187.221 65.4779L187.415 65.191C187.94 65.6199 188.389 66.1327 188.746 66.7088Z" fill="#AD5FDD"/>
<path d="M190.867 65.501L190.58 65.6861C190.246 65.1508 189.828 64.6727 189.342 64.2701L189.536 63.9832C190.061 64.4118 190.51 64.9247 190.867 65.501Z" fill="#AD5FDD"/>
<path d="M192.992 64.3164L192.701 64.4969C192.367 63.9622 191.951 63.4842 191.467 63.0809L191.657 62.7986C192.184 63.2254 192.636 63.7386 192.992 64.3164Z" fill="#AD5FDD"/>
<path d="M195.113 63.1179L194.822 63.2984C194.489 62.7646 194.072 62.288 193.588 61.887L193.782 61.6001C194.306 62.029 194.756 62.5419 195.113 63.1179Z" fill="#AD5FDD"/>
<path d="M197.233 61.9194L196.947 62.1045C196.614 61.5695 196.197 61.0915 195.713 60.6885L195.907 60.4016C196.432 60.8292 196.88 61.3424 197.233 61.9194Z" fill="#AD5FDD"/>
<path d="M215.626 270.744L216.934 286.524C216.934 286.524 218.163 294.066 212.402 295.316C212.402 295.316 209.865 295.543 210.091 297.005C210.091 297.005 217.544 299.545 221.18 295.154C222.01 293.531 222.977 291.983 224.072 290.526C225.114 289.176 226.393 288.028 227.847 287.139C228.573 286.719 229.112 286.037 229.353 285.233C229.459 284.8 229.454 284.348 229.339 283.918C229.224 283.488 229.004 283.093 228.697 282.771C227.85 281.8 226.682 281.167 225.407 280.989C225.407 280.989 223.716 278.602 224.714 273.831L215.626 270.744Z" fill="#F9B499"/>
<path d="M221.776 272.808C221.776 272.808 221.466 279.43 225.389 280.971C225.389 280.971 223.619 278.194 224.696 273.812L221.776 272.808Z" fill="#F7A48B"/>
<path d="M217.784 281.096C216.855 281.152 215.927 280.978 215.081 280.591C214.934 280.511 214.804 280.402 214.7 280.27C214.596 280.138 214.52 279.986 214.477 279.824C214.434 279.661 214.424 279.491 214.448 279.325C214.473 279.159 214.531 278.999 214.619 278.856C214.992 278.349 215.524 277.981 216.13 277.81L216.384 278.699C215.998 278.806 215.655 279.033 215.405 279.347C215.382 279.382 215.366 279.421 215.36 279.463C215.353 279.504 215.356 279.547 215.368 279.587C215.392 279.67 215.446 279.741 215.52 279.786C216.033 280.069 217.456 280.453 221.231 279.833C222.677 279.689 225.158 279.245 225.782 278.643C225.794 278.633 225.802 278.62 225.807 278.606C225.812 278.591 225.813 278.575 225.809 278.56C225.809 278.543 225.803 278.526 225.793 278.512C225.783 278.498 225.77 278.488 225.754 278.481C225.354 278.333 224.922 278.293 224.502 278.366L224.414 277.44C225.002 277.346 225.605 277.417 226.156 277.644C226.306 277.715 226.437 277.823 226.536 277.957C226.635 278.091 226.7 278.247 226.724 278.412C226.749 278.575 226.735 278.741 226.683 278.897C226.631 279.054 226.542 279.195 226.424 279.31C225.361 280.323 221.757 280.698 221.342 280.744C220.167 280.957 218.977 281.074 217.784 281.096Z" fill="#AD5FDD"/>
<path d="M172.206 287.681C173.061 291.216 170.284 291.669 168.787 291.665C168.49 291.664 168.194 291.644 167.9 291.605C162.753 291.836 159.523 293.608 159.523 293.608C155.833 294.606 151.954 294.684 148.227 293.835C145.307 292.683 152.99 290.911 152.99 290.911C158.678 288.134 164.213 274.132 164.213 274.132L171.175 274.53L174.973 274.747C174.973 274.747 168.362 283.368 170.053 284.599C170.106 284.636 170.156 284.676 170.205 284.719C172.206 286.602 172.206 287.681 172.206 287.681Z" fill="#F9B499"/>
<path d="M172.206 287.681C173.06 291.216 170.284 291.669 168.787 291.665C170.173 289.865 169.863 287.764 169.452 286.501C169.271 285.966 169.018 285.458 168.699 284.992C168.207 284.256 167.929 283.398 167.896 282.513C167.863 281.628 168.077 280.751 168.514 279.981L171.175 274.53L174.973 274.747C174.973 274.747 168.362 283.368 170.053 284.599C170.105 284.636 170.156 284.676 170.205 284.719C172.206 286.602 172.206 287.681 172.206 287.681Z" fill="#F7A48B"/>
<path d="M165.913 284.622C160.309 284.622 159.232 283.021 159.121 282.827C158.816 282.188 158.812 281.702 159.098 281.346C159.588 280.735 160.674 280.948 160.886 280.994L160.678 281.896C160.396 281.811 160.094 281.821 159.819 281.924C159.819 281.924 159.796 282.077 159.925 282.387C160.041 282.53 161.311 283.891 167.04 283.696C167.086 283.696 170.108 283.696 171.503 283.336C171.546 283.324 171.584 283.301 171.612 283.268C171.641 283.234 171.659 283.194 171.664 283.15C171.669 283.107 171.661 283.063 171.64 283.024C171.62 282.985 171.588 282.953 171.55 282.933C171.143 282.749 170.701 282.659 170.256 282.669L170.279 281.744C170.87 281.733 171.456 281.862 171.988 282.118C172.19 282.228 172.353 282.395 172.458 282.599C172.563 282.802 172.605 283.033 172.577 283.26C172.55 283.488 172.455 283.701 172.305 283.874C172.154 284.047 171.956 284.17 171.734 284.229C170.228 284.617 167.183 284.622 167.054 284.622C166.657 284.617 166.273 284.622 165.913 284.622Z" fill="#AD5FDD"/>
<path d="M226.077 141.969C223.827 145.583 222.215 144.852 221.217 143.473C220.675 142.657 220.266 141.761 220.006 140.816L218.158 136.041C217.234 133.427 213.316 133.265 213.316 133.265L209.32 130.419L211.14 127.545L225.837 124.042L225.458 128.67L226.844 130.442C227.593 131.521 228.055 132.772 228.189 134.079C228.628 138.151 226.077 141.969 226.077 141.969Z" fill="#F9B499"/>
<path d="M211.145 127.55C211.145 127.55 211.247 130.326 218.625 130.113C220.163 130.186 221.696 129.891 223.098 129.253C223.466 129.082 223.878 129.034 224.276 129.114C224.497 129.146 224.722 129.12 224.93 129.039C225.138 128.958 225.322 128.824 225.463 128.651L225.842 124.024L211.145 127.55Z" fill="#F7A48B"/>
<path d="M234.495 120.146C234.495 120.146 234.38 132.427 231.612 141.432C231.15 138.1 230.855 134.491 230.73 130.618C230.665 128.586 230.656 126.624 230.698 124.746C231.142 124.355 231.551 123.924 231.917 123.459C232.705 122.522 233.26 121.412 233.539 120.22C233.856 120.176 234.175 120.151 234.495 120.146Z" fill="#741787"/>
<path d="M132.509 83.2008C132.509 83.2008 138.852 88.7814 137.891 92.7471C137.891 92.7471 133.802 90.7064 132.509 83.2008Z" fill="#AD5FDD"/>
<g opacity="0.3">
<path d="M132.509 83.2008C132.509 83.2008 138.852 88.7814 137.891 92.7471C137.891 92.7471 133.802 90.7064 132.509 83.2008Z" fill="black"/>
</g>
<path d="M150.435 82.8861C150.837 82.5483 151.087 82.1781 150.99 82.0624L116.953 41.545C116.856 41.4293 116.449 41.6098 116.029 41.9522C115.608 42.2946 115.377 42.6602 115.474 42.7759L149.516 83.2933C149.631 83.409 150.033 83.2239 150.435 82.8861Z" fill="#AD5FDD"/>
<path d="M150.435 81.447L150.666 81.6969C150.204 82.1239 149.812 82.6223 149.507 83.173L149.192 83.0388C149.514 82.4418 149.934 81.9036 150.435 81.447Z" fill="white"/>
<path d="M148.878 79.5775L149.114 79.8321C148.651 80.2591 148.26 80.7574 147.954 81.3082L147.64 81.174C147.962 80.5773 148.381 80.0379 148.878 79.5775Z" fill="white"/>
<path d="M147.312 77.7127L147.543 77.9626C147.079 78.3906 146.688 78.8906 146.383 79.4434L146.069 79.3045C146.392 78.7084 146.812 78.1704 147.312 77.7127Z" fill="white"/>
<path d="M145.746 75.8479L145.977 76.0977C145.514 76.5248 145.123 77.0231 144.817 77.5739L144.503 77.4397C144.823 76.8417 145.243 76.3032 145.746 75.8479Z" fill="white"/>
<path d="M144.175 73.9784L144.41 74.2329C143.945 74.6582 143.551 75.1568 143.246 75.709L142.932 75.5702C143.256 74.975 143.676 74.4372 144.175 73.9784Z" fill="white"/>
<path d="M142.609 72.1136L142.84 72.3634C142.376 72.7914 141.985 73.2914 141.68 73.8442L141.366 73.7054C141.687 73.1084 142.108 72.5702 142.609 72.1136Z" fill="white"/>
<path d="M141.038 70.2441L141.273 70.4986C140.811 70.9256 140.419 71.424 140.114 71.9747L139.795 71.8405C140.12 71.2443 140.54 70.7051 141.038 70.2441Z" fill="white"/>
<path d="M139.471 68.3793L139.702 68.6291C139.239 69.0571 138.847 69.5571 138.543 70.1099L138.229 69.9711C138.552 69.3749 138.972 68.837 139.471 68.3793Z" fill="white"/>
<path d="M137.901 66.5144L138.136 66.7643C137.674 67.1913 137.282 67.6897 136.977 68.2404L136.662 68.1062C136.983 67.5096 137.401 66.9714 137.901 66.5144Z" fill="white"/>
<path d="M136.334 64.6449L136.565 64.8995C136.103 65.3266 135.711 65.8249 135.406 66.3756L135.092 66.2414C135.415 65.6441 135.835 65.1047 136.334 64.6449Z" fill="white"/>
<path d="M134.768 62.7801L134.999 63.03C134.536 63.458 134.144 63.958 133.839 64.5108L133.525 64.3719C133.847 63.7749 134.267 63.2367 134.768 62.7801Z" fill="white"/>
<path d="M133.197 60.9106L133.433 61.1652C132.969 61.5909 132.577 62.0895 132.273 62.6413L131.954 62.5071C132.279 61.9109 132.699 61.3717 133.197 60.9106Z" fill="white"/>
<path d="M131.631 59.0458L131.862 59.2957C131.4 59.7248 131.008 60.2246 130.702 60.7764L130.388 60.6376C130.713 60.0424 131.132 59.5046 131.631 59.0458Z" fill="white"/>
<path d="M130.06 57.1717L130.296 57.4216C129.833 57.8486 129.442 58.3469 129.136 58.8977L128.822 58.7635C129.142 58.1669 129.561 57.6287 130.06 57.1717Z" fill="white"/>
<path d="M128.494 55.3208L128.725 55.5753C128.261 56.0012 127.869 56.4997 127.565 57.0514L127.251 56.9172C127.574 56.3199 127.994 55.7805 128.494 55.3208Z" fill="white"/>
<path d="M126.928 53.4698L127.159 53.7197C126.695 54.1477 126.304 54.6477 125.999 55.2004L125.685 55.0616C126.005 54.4636 126.425 53.9251 126.928 53.4698Z" fill="white"/>
<path d="M125.357 51.5772L125.592 51.8317C125.128 52.2581 124.735 52.7565 124.428 53.3078L124.114 53.1736C124.439 52.5774 124.859 52.0382 125.357 51.5772Z" fill="white"/>
<path d="M123.79 49.7124L124.021 49.9669C123.558 50.3928 123.166 50.8913 122.862 51.443L122.548 51.3042C122.872 50.7089 123.292 50.1712 123.79 49.7124Z" fill="white"/>
<path d="M122.22 47.8475L122.455 48.0974C121.993 48.5244 121.601 49.0228 121.296 49.5735L120.981 49.4393C121.302 48.8427 121.72 48.3045 122.22 47.8475Z" fill="white"/>
<path d="M120.653 45.978L120.884 46.2326C120.42 46.6585 120.029 47.157 119.725 47.7087L119.41 47.5745C119.734 46.9772 120.154 46.4378 120.653 45.978Z" fill="white"/>
<path d="M119.087 44.1132L119.318 44.3631C118.855 44.7911 118.463 45.2911 118.158 45.8438L117.844 45.705C118.166 45.108 118.586 44.5698 119.087 44.1132Z" fill="white"/>
<path d="M117.516 42.2437L117.752 42.4983C117.288 42.924 116.896 43.4226 116.592 43.9744L116.273 43.8402C116.597 43.2429 117.017 42.7035 117.516 42.2437Z" fill="white"/>
<path d="M59.9391 256.95C59.9391 256.95 57.7676 259.352 55.1572 257.968C55.1572 257.968 53.0041 255.506 50.6201 257.2C50.6201 257.2 49.3172 258.352 50.1581 260.587C50.1581 260.587 50.5416 263.664 49.3865 265.358C49.3865 265.358 47.6955 268.051 49.1555 271.836C49.1555 271.836 49.3865 275.455 50.6155 275.302C50.6155 275.302 51.6181 275.455 52.0015 272.299C52.0015 272.299 52.2326 268.759 61.607 263.97L59.9391 256.95Z" fill="#F9B499"/>
<path d="M100.578 283.914C100.578 283.914 94.4289 289.763 99.4234 291.072C99.4234 291.072 103.013 291.012 105.892 292.285C107.37 292.962 108.936 293.43 110.544 293.673C112.738 294.037 114.98 293.999 117.16 293.562C117.305 293.526 117.435 293.446 117.532 293.332C117.628 293.219 117.687 293.077 117.699 292.929C117.712 292.78 117.677 292.631 117.6 292.503C117.523 292.375 117.408 292.274 117.271 292.215C117.091 292.141 116.902 292.054 116.703 291.966C114.154 290.822 112.082 288.824 110.845 286.316L109.514 283.613L100.578 283.914Z" fill="#F9B499"/>
<path d="M128.013 241.263L125.555 263.123C125.093 271.795 117.826 279.833 113.746 283.683C112.799 284.577 111.683 285.273 110.463 285.73C109.244 286.187 107.946 286.395 106.645 286.343C99.1231 286.052 95.196 281.674 95.196 281.674C95.0435 281.54 94.9003 281.401 94.7709 281.262C94.2751 280.702 93.9133 280.035 93.7132 279.314C93.513 278.592 93.4797 277.834 93.6158 277.098C93.9146 274.977 94.0105 272.833 93.9023 270.693C93.7267 266.992 93.4172 263.044 93.0291 259.125C91.3381 241.897 88.127 224.521 88.127 224.521C87.8729 223.665 87.628 222.837 87.4017 222.027C82.5181 204.554 83.9041 197.312 83.9041 197.312L115.64 189.908L122.571 188.298L124.493 197.456C130.628 214.17 128.013 241.263 128.013 241.263Z" fill="#741787"/>
<path d="M93.0289 259.088C81.2982 267.348 67.0818 269.268 63.0853 269.657C62.7644 269.687 62.4422 269.614 62.1661 269.447C61.89 269.281 61.6745 269.03 61.5514 268.731C60.2618 265.394 59.4935 261.878 59.2736 258.306C59.2575 258.042 59.3103 257.779 59.427 257.542C59.5437 257.305 59.7202 257.102 59.9389 256.955C64.3882 253.942 74.2154 239.343 74.2154 239.343C77.7341 232.942 82.1774 227.096 87.4015 221.995C87.6279 222.805 87.8635 223.633 88.1269 224.489C88.1269 224.484 91.3379 241.86 93.0289 259.088Z" fill="#741787"/>
<g opacity="0.2">
<path d="M92.276 216.558C92.276 216.558 91.8925 236.261 95.196 250.426C95.196 250.426 100.144 269.347 94.7709 281.262C94.2751 280.702 93.9133 280.035 93.7132 279.314C93.513 278.592 93.4797 277.834 93.6158 277.098C93.9146 274.977 94.0105 272.833 93.9023 270.693C93.7267 266.992 93.4172 263.044 93.0291 259.125C91.3381 241.897 88.127 224.521 88.127 224.521C87.8729 223.665 87.628 222.837 87.4017 222.027C82.5181 204.554 83.9041 197.312 83.9041 197.312L115.64 189.908C113.714 190.607 91.8371 198.821 92.276 216.558Z" fill="black"/>
</g>
<g opacity="0.2">
<path d="M97.2703 277.288C97.2703 277.288 117.484 269.592 124.479 248.348C124.479 248.348 116.869 279.828 97.2703 277.288Z" fill="black"/>
</g>
<g opacity="0.2">
<path d="M98.116 260.971C98.116 260.971 115.178 256.043 119.406 226.872C119.406 226.872 118.024 261.355 98.116 260.971Z" fill="black"/>
</g>
<path d="M92.045 111.872L93.3526 113.024C93.5281 113.177 93.7427 113.277 93.9721 113.314C94.2015 113.35 94.4365 113.322 94.6508 113.233C98.578 111.576 117.687 102.789 132.509 83.2008C132.509 83.2008 133.354 89.7439 137.891 92.7471C137.891 92.7471 126.054 105.523 118.14 109.831L91.084 124.921L88.7739 116.069C88.7739 116.069 90.0121 116.453 92.045 111.872Z" fill="#AD5FDD"/>
<g opacity="0.2">
<path d="M137.891 92.7471C137.891 92.7471 133.673 97.2958 128.596 101.882C128.09 102.335 127.579 102.789 127.062 103.242C124.049 105.866 120.861 108.332 118.14 109.831L91.084 124.921L88.7739 116.069C88.7739 116.069 90.0075 116.453 92.0404 111.872L93.3479 113.024C93.5235 113.177 93.7381 113.277 93.9675 113.314C94.1968 113.35 94.4319 113.322 94.6462 113.233C98.5734 111.576 117.683 102.789 132.504 83.2008C132.509 83.2008 133.341 89.7439 137.891 92.7471Z" fill="black"/>
</g>
<path d="M128.596 101.882C128.09 102.335 127.579 102.789 127.062 103.242L126.706 97.0182L122.197 94.7554L123.347 93.6957L128.323 95.5467L128.596 101.882Z" fill="#741787"/>
<path d="M142.387 74.4643C142.387 74.4643 142.539 78.7724 140.77 81.0074L135.771 90.7249C135.333 90.2668 134.953 89.7571 134.639 89.2071C133.712 87.6259 133.04 85.9081 132.647 84.117C132.647 84.117 137.545 79.7626 137.466 75.7599C137.466 75.7599 137.314 73.2195 136.699 71.8313C136.699 71.8313 136.159 69.3695 137.545 68.8327C137.545 68.8327 137.776 66.9077 139.079 66.9077C139.079 66.9077 139.31 65.2141 141.615 65.8296L144.766 67.4445C144.766 67.4445 145.459 67.7545 145.228 69.6795C145.228 69.6795 145.228 69.7073 145.228 69.7397C145.325 70.3366 145.815 74.5337 142.387 74.4643Z" fill="#F9B499"/>
<path d="M142.387 74.4643C142.387 74.4643 142.539 78.7724 140.77 81.0074L135.771 90.7249C135.333 90.2668 134.953 89.7571 134.639 89.2072L139.467 80.3087C139.698 74.8437 141.463 74.4597 141.463 74.4597C145.468 72.9095 145.298 70.2071 145.237 69.7536C145.325 70.3367 145.815 74.5337 142.387 74.4643Z" fill="#F7A48B"/>
<path d="M229.995 118.767L224.784 125.504C223.163 127.6 220.778 128.964 218.153 129.299C215.527 129.633 212.877 128.909 210.785 127.286C209.799 126.521 208.975 125.569 208.357 124.484C207.74 123.4 207.342 122.204 207.187 120.965C207.032 119.727 207.122 118.469 207.452 117.266C207.782 116.062 208.346 114.935 209.112 113.95L212.161 110.007L216.717 104.121C217.196 103.501 217.793 102.981 218.473 102.591C219.153 102.202 219.903 101.951 220.68 101.852C221.457 101.753 222.246 101.809 223.002 102.015C223.758 102.222 224.465 102.576 225.084 103.057L228.341 105.583C230.305 107.113 231.581 109.361 231.891 111.833C232.202 114.304 231.52 116.798 229.995 118.767Z" fill="#F9B499"/>
<path d="M214.485 106.925C214.485 106.925 217.858 98.0177 226.618 100.248C226.618 100.248 232.841 101.326 234.301 117.568C234.301 117.568 225.773 118.11 221.929 104.561L214.485 106.925Z" fill="#741787"/>
<path d="M212.143 110.007L209.112 113.95C208.203 115.124 207.581 116.495 207.296 117.953C207.296 117.953 207 117.332 206.506 116.24C204.658 112.141 199.978 101.456 197.432 92.4001C197.432 92.4001 196.046 87.3099 193.514 84.4687C192.076 83.0733 191.246 81.166 191.204 79.1611C191.204 79.1611 190.206 74.2329 189.208 72.3866C189.208 72.3866 191.282 70.9984 193.126 76.2366L193.74 79.013C193.971 77.7452 194.332 76.5047 194.817 75.3111C194.817 75.3111 195.833 73.7841 193.569 71.0909C193.547 71.0657 193.533 71.0349 193.527 71.0019C193.521 70.9689 193.524 70.9349 193.536 70.9035C193.548 70.8722 193.568 70.8446 193.594 70.8238C193.62 70.803 193.652 70.7898 193.685 70.7855C194.47 70.6837 196.457 70.7254 197.201 73.5619C197.201 73.5619 197.968 73.4092 198.971 74.4088C199.239 74.367 199.514 74.415 199.753 74.5455C199.992 74.676 200.181 74.8816 200.292 75.1306C200.417 75.4419 200.43 75.7871 200.329 76.107C200.033 77.088 199.215 80.1652 199.77 82.7566C199.798 82.8895 199.838 83.0197 199.89 83.1453C200.301 84.1402 202.256 88.8138 204.358 92.7425C204.718 93.4181 205.083 94.0705 205.448 94.6814C205.748 95.1811 206.03 95.6855 206.298 96.2038C207.499 98.5545 210.65 104.913 212.143 110.007Z" fill="#F9B499"/>
<path d="M196.337 77.0047C196.289 77.0045 196.243 76.99 196.203 76.9631C196.154 76.9269 196.12 76.8728 196.11 76.8124C196.099 76.7519 196.113 76.6898 196.148 76.6392C197.016 75.4083 196.952 73.5666 196.952 73.5481C196.952 73.4867 196.976 73.4278 197.019 73.3845C197.063 73.3411 197.121 73.3167 197.183 73.3167C197.244 73.3167 197.303 73.3411 197.346 73.3845C197.389 73.4278 197.414 73.4867 197.414 73.5481C197.414 73.6313 197.483 75.5702 196.527 76.926C196.503 76.9532 196.474 76.9744 196.441 76.9881C196.408 77.0018 196.373 77.0075 196.337 77.0047Z" fill="#F7A48B"/>
<path d="M198.107 77.3101C198.076 77.3109 198.045 77.3056 198.017 77.2945C197.988 77.2834 197.962 77.2667 197.94 77.2454C197.898 77.2013 197.874 77.1424 197.874 77.0811C197.874 77.0197 197.898 76.9608 197.94 76.9168C198.25 76.5887 198.481 76.1948 198.617 75.7644C198.753 75.3341 198.79 74.8786 198.726 74.4319C198.72 74.4021 198.719 74.3714 198.725 74.3416C198.731 74.3118 198.743 74.2834 198.759 74.258C198.776 74.2326 198.798 74.2108 198.823 74.1938C198.848 74.1768 198.876 74.165 198.906 74.1589C198.966 74.148 199.029 74.1612 199.08 74.1958C199.131 74.2304 199.166 74.2836 199.178 74.344C199.26 74.8662 199.219 75.4003 199.058 75.9039C198.898 76.4074 198.623 76.8667 198.254 77.2454C198.215 77.2844 198.162 77.3075 198.107 77.3101Z" fill="#F7A48B"/>
<path d="M226.077 141.969C223.827 145.583 222.215 144.852 221.217 143.473C222.603 142.691 226.41 140.062 228.194 134.06C228.628 138.151 226.077 141.969 226.077 141.969Z" fill="#F7A48B"/>
<path d="M214.398 177.84L212.185 178.303L210.863 178.59C210.496 178.688 210.116 178.735 209.736 178.729C208.677 178.69 207.665 178.288 206.867 177.59C205.79 176.748 205.019 176.984 204.557 177.303C204.141 177.585 203.644 177.723 203.143 177.697L185.586 176.818C187.434 172.357 188.686 163.676 188.686 163.676C207.001 171.542 215.1 166.66 215.1 166.66C213.4 170.543 214.398 177.84 214.398 177.84Z" fill="#F9B499"/>
<path d="M212.185 178.321L210.863 178.608C210.496 178.707 210.116 178.753 209.736 178.747C208.779 175.452 208.824 171.947 209.865 168.678C210.101 173.828 211.552 177.118 212.185 178.321Z" fill="#F7A48B"/>
<path d="M261.431 268.051C258.774 270.444 255.904 272.587 252.856 274.456C249.583 276.503 245.992 277.989 242.23 278.852C239.996 279.338 237.703 279.494 235.424 279.314C228.646 278.768 224.95 275.191 224.95 275.191C223.656 273.976 222.061 273.129 220.33 272.739C217.706 272.04 214.633 271.938 211.764 272.096C208.521 272.289 205.301 272.753 202.135 273.484C200.17 274.073 198.162 274.508 196.129 274.784C193.131 275.224 189.91 275.474 186.99 275.608C181.474 275.862 177.002 275.714 177.002 275.714C170.995 275.83 166.879 275.548 164.065 275.14C159.14 274.456 158.29 273.363 158.29 273.363C157.614 272.925 156.873 272.597 156.095 272.392C149.581 270.638 141.384 277.056 141.384 277.056C137.924 279.291 140.229 275.747 140.229 275.747C141.717 273.877 143.151 272.026 144.531 270.194C148.227 265.289 151.521 260.546 154.441 256.089C166.121 238.279 171.739 225.086 171.739 225.086C173.047 221.916 174.313 218.27 175.5 214.443C180.462 198.497 184.112 179.515 184.112 179.515C184.264 177.202 185.572 176.818 185.572 176.818L190.571 177.067L203.129 177.697C203.63 177.723 204.127 177.585 204.543 177.303C205.005 176.984 205.785 176.748 206.853 177.59C207.651 178.288 208.663 178.69 209.722 178.729C210.102 178.735 210.482 178.688 210.849 178.59L212.171 178.303L214.384 177.84L223.162 199.126L227.001 208.487C233.359 226.969 246.554 247.302 254.635 258.792C257.407 262.72 259.565 265.617 260.641 267.052L261.431 268.051Z" fill="#741787"/>
<path d="M260.655 267.038C242.262 280.143 230 271.203 230 271.203C213.631 265.122 196.873 270.74 196.873 270.74C172.437 276.667 156.372 269.893 156.372 269.893C152.497 268.721 148.348 268.823 144.535 270.184C148.231 265.279 151.526 260.536 154.446 256.08C156.266 256.182 159.329 256.649 164.351 258.093C165.483 258.417 166.606 258.792 167.706 259.222C170.099 260.148 176.844 262.244 186.579 260.846C187.669 260.686 188.749 260.464 189.813 260.18C194.332 258.995 210.96 255.09 226.133 257.117C226.133 257.117 232.356 257.811 241.888 260.657C241.888 260.657 247.626 262.336 254.612 258.773C257.398 262.707 259.565 265.603 260.655 267.038Z" fill="#AD5FDD"/>
<g opacity="0.2">
<path d="M164.051 275.173C159.14 274.456 158.29 273.363 158.29 273.363C157.614 272.925 156.873 272.597 156.095 272.392C193.981 220.565 187.804 184.934 187.804 184.934C185.955 186.785 184.264 191.63 184.264 191.63C181.636 206.558 177.602 212.365 175.486 214.475C180.448 198.529 184.098 179.548 184.098 179.548C184.251 177.234 185.558 176.85 185.558 176.85L190.557 177.1C188.908 181.792 190.169 187.784 190.169 187.784C195.81 225.146 170.196 266.02 164.051 275.173Z" fill="black"/>
</g>
<g opacity="0.2">
<path d="M196.097 274.816C193.098 275.256 189.878 275.506 186.958 275.64C188.21 267.672 196.813 211.782 196.027 183.379L198.721 186.766C198.721 186.766 199.41 248.501 196.097 274.816Z" fill="black"/>
</g>
<g opacity="0.2">
<path d="M220.297 272.757C217.673 272.059 214.601 271.957 211.732 272.114C209.883 254.558 203.022 186.23 203.022 186.23L209.708 191.926L220.297 272.757Z" fill="black"/>
</g>
<g opacity="0.2">
<path d="M242.207 278.852C239.973 279.338 237.68 279.494 235.401 279.314L214.397 197.622L217.632 196.313L242.207 278.852Z" fill="black"/>
</g>
<g opacity="0.2">
<path d="M261.431 268.051C258.774 270.444 255.904 272.587 252.856 274.456C238.848 252.244 223.13 199.159 223.13 199.159H223.162L227.001 208.487C233.359 226.969 246.554 247.302 254.635 258.792C257.407 262.72 259.565 265.617 260.641 267.052L261.431 268.051Z" fill="black"/>
</g>
<path d="M187.457 170.117C187.011 172.403 186.382 174.65 185.577 176.836C184.191 177.299 184.117 179.534 184.117 179.534L183.276 183.833C182.985 185.327 182.564 187.238 182.084 189.33C180.282 197.118 177.621 207.335 177.621 207.335L169.304 218.404C166.92 222.106 163.76 216.4 163.76 216.4C163.5 216.162 163.215 215.953 162.91 215.776C160.771 214.526 158.008 215.021 156.751 215.35C156.719 215.359 156.685 215.357 156.655 215.344C156.624 215.331 156.599 215.308 156.584 215.278C156.569 215.249 156.564 215.215 156.571 215.182C156.578 215.15 156.596 215.121 156.622 215.1C159.158 212.897 170.247 202.481 183.049 178.456L187.457 170.117Z" fill="#AD5FDD"/>
<g opacity="0.2">
<path d="M187.457 170.117C187.011 172.403 186.382 174.65 185.577 176.836C184.191 177.299 184.117 179.534 184.117 179.534L183.276 183.833C182.985 185.327 182.564 187.238 182.084 189.33C180.282 197.118 177.621 207.335 177.621 207.335L169.304 218.404C166.92 222.106 163.76 216.4 163.76 216.4C163.5 216.162 163.215 215.953 162.91 215.776C160.771 214.526 158.008 215.021 156.751 215.35C156.719 215.359 156.685 215.357 156.655 215.344C156.624 215.331 156.599 215.308 156.584 215.278C156.569 215.249 156.564 215.215 156.571 215.182C156.578 215.15 156.596 215.121 156.622 215.1C159.158 212.897 170.247 202.481 183.049 178.456L187.457 170.117Z" fill="white"/>
</g>
<path d="M245.524 139.428L244.526 159.437C244.526 172.602 239.906 181.066 239.906 181.066C234.74 190.464 232.259 192.731 231.529 193.245C231.146 193.513 230.767 193.795 230.397 194.092C229.036 195.151 227.796 196.358 226.701 197.692C210.41 215.475 197.349 177.331 197.349 177.331L199.872 177.484L203.143 177.706C203.646 177.751 204.149 177.612 204.556 177.313C205.772 176.484 206.867 177.6 206.867 177.6C209.02 179.293 210.863 178.599 210.863 178.599L214.397 177.831C219.239 182.139 221.624 177.447 221.624 177.447C223.496 173.394 224.963 169.166 226.003 164.823C227.232 160.358 226.387 155.43 226.387 155.43C225.694 149.733 226.849 143.593 226.849 143.593C229.787 136.143 228.937 132.321 228.937 132.321C228.503 130.15 226.835 130.414 226.835 130.414L225.449 128.642L225.759 124.87C225.755 125.106 225.808 125.338 225.914 125.549C226.019 125.759 226.173 125.941 226.364 126.078C228.212 127.36 230.684 124.736 230.684 124.736C230.61 128.679 231.608 141.423 231.608 141.423C233.682 134.944 234.223 125.486 234.223 125.486C234.911 120.021 233.687 112.992 233.687 112.992C231.839 101.423 226.613 100.239 226.613 100.239C225.04 99.7691 223.371 99.7164 221.771 100.086C222.675 99.5845 223.623 99.1678 224.604 98.8414C236.154 95.0608 241.061 110.095 241.061 110.095L244.521 126.333C246.074 134.736 245.524 139.428 245.524 139.428Z" fill="#AD5FDD"/>
<g opacity="0.2">
<path d="M245.524 139.428L244.526 159.437C244.526 172.602 239.906 181.066 239.906 181.066C234.74 190.464 232.259 192.731 231.529 193.245C231.146 193.513 230.767 193.795 230.397 194.092C229.036 195.151 227.796 196.358 226.701 197.692C210.41 215.475 197.349 177.331 197.349 177.331L199.872 177.484L203.143 177.706C203.646 177.751 204.149 177.612 204.556 177.313C205.772 176.484 206.867 177.6 206.867 177.6C209.02 179.293 210.863 178.599 210.863 178.599L214.397 177.831C219.239 182.139 221.624 177.447 221.624 177.447C223.496 173.394 224.963 169.166 226.003 164.823C227.232 160.358 226.387 155.43 226.387 155.43C225.694 149.733 226.849 143.593 226.849 143.593C229.787 136.143 228.937 132.321 228.937 132.321C228.503 130.15 226.835 130.414 226.835 130.414L225.449 128.642L225.759 124.87C225.755 125.106 225.808 125.338 225.914 125.549C226.019 125.759 226.173 125.941 226.364 126.078C228.212 127.36 230.684 124.736 230.684 124.736C230.61 128.679 231.608 141.423 231.608 141.423C233.682 134.944 234.223 125.486 234.223 125.486C234.911 120.021 233.687 112.992 233.687 112.992C231.839 101.423 226.613 100.239 226.613 100.239C225.04 99.7691 223.371 99.7164 221.771 100.086C222.675 99.5845 223.623 99.1678 224.604 98.8414C236.154 95.0608 241.061 110.095 241.061 110.095L244.521 126.333C246.074 134.736 245.524 139.428 245.524 139.428Z" fill="white"/>
</g>
<g opacity="0.2">
<path d="M245.524 139.428L244.526 159.437C244.526 172.602 239.906 181.066 239.906 181.066C234.74 190.464 232.259 192.731 231.529 193.245C231.146 193.513 230.767 193.795 230.397 194.092C229.036 195.151 227.796 196.358 226.701 197.692C210.41 215.475 197.349 177.331 197.349 177.331L199.872 177.484C199.872 177.484 218.38 199.825 225.218 193.745C225.218 193.745 231.446 183.509 237.748 176.734C237.748 176.734 243.971 171.806 243.436 157.415C243.436 157.415 242.438 127.24 240.663 121.784L239.818 145.647L239.665 123.399C239.665 123.399 239.896 114.935 236.819 107.62C236.819 107.62 233.987 99.2902 224.59 98.8275C236.14 95.0469 241.047 110.081 241.047 110.081L244.507 126.319C246.074 134.736 245.524 139.428 245.524 139.428Z" fill="white"/>
</g>
<g opacity="0.2">
<path d="M238.681 171.991C238.908 165.281 239.296 158.512 239.836 151.82C239.61 158.53 239.222 165.3 238.681 171.991Z" fill="white"/>
</g>
<g opacity="0.2">
<path d="M231.751 175.452C230.781 179.478 229.644 183.518 228.369 187.461C229.339 183.435 230.481 179.395 231.751 175.452Z" fill="white"/>
</g>
<g opacity="0.2">
<path d="M223.236 189.538L221.083 187.077C221.083 187.077 222.16 181.302 225.773 178.687C224.507 182.193 223.656 185.834 223.236 189.538Z" fill="white"/>
</g>
<g opacity="0.2">
<path d="M227.001 171.528C228.407 168.756 229.55 165.857 230.416 162.871C231.048 160.74 231.568 158.578 231.973 156.392C231.973 156.304 232.116 155.657 232.135 155.573C232.19 155.212 232.356 154.139 232.416 153.764C232.555 152.903 232.643 151.982 232.768 151.122C232.717 151.756 232.652 152.473 232.601 153.116C232.55 153.759 232.375 154.907 232.287 155.601C232.199 156.295 232.047 157.045 231.922 157.739C231.797 158.433 231.539 159.59 231.34 160.349C230.757 162.729 229.996 165.062 229.062 167.327C228.475 168.771 227.787 170.172 227.001 171.519V171.528Z" fill="white"/>
</g>
<g opacity="0.2">
<path d="M205.176 182.148C205.176 182.148 213.4 190.306 222.159 191.153C222.159 191.153 214.476 194.143 205.176 182.148Z" fill="white"/>
</g>
<g opacity="0.2">
<path d="M211.782 183.689L213.321 186.614L219.623 188.691L219.392 186.766L211.782 183.689Z" fill="white"/>
</g>
<g opacity="0.2">
<path d="M209.708 179.145C209.708 179.145 211.168 185.304 220.085 184.305L221.697 180.14C221.697 180.14 213.783 182.38 209.708 179.145Z" fill="white"/>
</g>
<path d="M228.203 139.738C227.883 140.994 227.466 142.222 226.955 143.412C224.932 148.123 222.22 153.13 220.861 155.555C220.399 156.402 219.868 157.225 219.318 158.021C215.968 162.88 215.091 166.679 215.091 166.679C214.726 166.85 214.351 167.003 213.972 167.142C206.224 169.955 195.321 166.401 190.409 164.467C188.788 163.828 187.817 163.366 187.817 163.366L188.903 157.864C189.001 157.35 189.124 156.842 189.273 156.341C189.799 154.634 189.088 152.801 188.649 151.908C188.219 151.028 187.908 150.094 187.725 149.132C186.575 143.278 191.139 141.487 191.139 141.487C191.075 140.534 191.033 139.636 191.019 138.79C190.834 129.711 193.214 126.939 193.214 126.939C195.659 126.991 198.083 127.412 200.403 128.188C200.668 128.271 200.948 128.297 201.225 128.265C201.501 128.232 201.767 128.141 202.006 127.999C204.178 126.74 209.352 130.405 209.352 130.405L213.349 133.251C217.507 133.561 218.191 136.027 218.191 136.027L220.039 140.803C221.115 144.417 222.548 144.467 222.548 144.467C224.761 145.12 226.604 141.302 227.445 139.169C227.967 137.865 228.235 136.474 228.235 135.069C228.235 131.923 226.881 130.409 226.881 130.409C230.157 130.257 229.044 136.407 228.203 139.738Z" fill="#AD5FDD"/>
<path d="M197.414 92.4C197.414 92.4 198.453 96.2639 199.008 97.6012C200.31 97.489 201.539 96.9484 202.502 96.0636C203.466 95.1789 204.11 93.9998 204.335 92.7101L202.902 89.855C202.902 89.855 199.641 94.7832 197.414 92.4Z" fill="#AD5FDD"/>
<path d="M193.186 126.957C193.186 126.957 190.788 125.444 187.702 123.626C184.422 121.691 180.36 119.415 177.584 118.263C174.228 113.763 171.197 109.03 168.514 104.098L162.753 93.3209C162.753 93.3209 161.445 90.4751 163.136 88.3974C164.374 87.1718 165.389 85.7389 166.135 84.1633C166.135 84.1633 168.907 78.9297 168.209 77.3101C168.209 77.3101 166.135 74.617 164.749 76.1579L163.903 77.6988C163.903 77.6988 163.441 74.3116 160.207 77.4675C160.207 77.4675 158.206 76.926 157.897 79.0037C157.897 79.0037 157.051 78.541 156.049 79.4665C156.049 79.4665 155.203 80.2393 156.432 81.2388C156.432 81.2388 157.892 82.1643 155.97 85.7783C155.282 87.0964 154.996 88.5881 155.148 90.0678C155.244 91.1155 155.522 92.1382 155.97 93.0895C155.97 93.0895 157.125 95.4773 158.812 102.099C159.848 105.783 161.22 109.364 162.91 112.798L166.828 119.956C166.828 119.956 168.288 123.658 170.672 124.121C170.672 124.121 182.495 135.259 191.001 138.817C191.001 137.762 191.001 136.795 191.033 135.907C191.324 129.123 193.186 126.957 193.186 126.957ZM164.079 78.2032L165.22 77.5322C165.241 77.5165 165.267 77.5079 165.294 77.5079C165.32 77.5079 165.346 77.5165 165.368 77.5322L165.867 78.032C165.882 78.0474 165.893 78.0668 165.898 78.0881C165.903 78.1094 165.902 78.1317 165.894 78.1523L165.308 80.1004C165.295 80.1433 165.269 80.1813 165.235 80.2097C165.2 80.2381 165.158 80.2556 165.114 80.26C165.069 80.2645 165.024 80.2557 164.985 80.2347C164.945 80.2137 164.913 80.1815 164.892 80.1421L164.019 78.4994C163.99 78.451 163.981 78.3935 163.993 78.3385C164.005 78.2835 164.037 78.2352 164.083 78.2032H164.079Z" fill="#F9B499"/>
<path d="M159.214 82.391C159.183 82.3892 159.154 82.3815 159.127 82.3681C159.1 82.3548 159.075 82.3361 159.056 82.3132C159.036 82.2904 159.021 82.2638 159.011 82.235C159.002 82.2063 158.999 82.1759 159.001 82.1457C159.144 80.0033 157.823 79.212 157.809 79.2073C157.756 79.1756 157.718 79.1243 157.702 79.0647C157.687 79.005 157.695 78.9416 157.726 78.888C157.741 78.8616 157.761 78.8384 157.785 78.8198C157.809 78.8012 157.836 78.7876 157.865 78.7798C157.895 78.7721 157.925 78.7703 157.955 78.7745C157.985 78.7788 158.014 78.7891 158.04 78.8048C158.105 78.8418 159.62 79.7534 159.463 82.1781C159.461 82.2085 159.452 82.2382 159.439 82.2654C159.425 82.2926 159.406 82.3168 159.383 82.3365C159.359 82.3563 159.332 82.3713 159.303 82.3807C159.274 82.39 159.244 82.3935 159.214 82.391Z" fill="#F7A48B"/>
<path d="M161.676 80.9287C161.618 80.9289 161.562 80.9071 161.519 80.8676C161.476 80.8282 161.45 80.774 161.445 80.7159C161.363 79.5578 160.872 78.4669 160.059 77.6387C160.038 77.6176 160.021 77.5924 160.009 77.5645C159.997 77.5367 159.991 77.5069 159.991 77.4767C159.991 77.4465 159.997 77.4167 160.009 77.3889C160.021 77.3611 160.038 77.3359 160.059 77.3147C160.1 77.2688 160.157 77.2407 160.218 77.2364C160.28 77.2321 160.34 77.2519 160.387 77.2916C161.295 78.1972 161.842 79.4031 161.926 80.6835C161.93 80.7441 161.909 80.8038 161.87 80.8497C161.83 80.8956 161.774 80.924 161.713 80.9287H161.676Z" fill="#F7A48B"/>
<g opacity="0.2">
<path d="M182.084 189.33C180.282 197.118 177.621 207.335 177.621 207.335L169.304 218.404C166.92 222.106 163.76 216.4 163.76 216.4C163.5 216.162 163.215 215.953 162.91 215.776C163.4 215.091 164.388 214.193 166.375 213.633C166.375 213.633 166.759 212.014 172.063 207.553C172.063 207.553 174.058 206.475 175.135 203.388L182.084 189.33Z" fill="white"/>
</g>
<path d="M212.143 110.007L209.112 113.95C208.203 115.124 207.581 116.494 207.296 117.953C207.296 117.953 207.001 117.332 206.506 116.24C207.166 114.743 207.978 113.316 208.927 111.983C209.678 110.915 210.007 109.606 209.851 108.309C209.154 102.932 204.617 93.2191 204.385 92.7286C204.746 93.4042 205.111 94.0567 205.476 94.6675C205.776 95.1672 206.058 95.6716 206.326 96.1899C207.5 98.5545 210.651 104.913 212.143 110.007Z" fill="#F7A48B"/>
<path d="M190.991 138.808C182.49 135.25 170.662 124.112 170.662 124.112C168.278 123.649 166.818 119.947 166.818 119.947L162.91 112.798C161.228 109.364 159.864 105.782 158.835 102.099C157.148 95.4773 155.993 93.0895 155.993 93.0895C155.545 92.1382 155.267 91.1155 155.171 90.0678V89.9429C155.835 91.6012 156.647 93.1964 157.597 94.7091C157.597 94.7091 161.293 110.026 167.974 119.109C167.974 119.109 181.118 131.266 191.019 135.898C190.982 136.786 190.968 137.753 190.991 138.808Z" fill="#F7A48B"/>
<path d="M77.7454 109.831L79.367 114.491C79.367 114.491 86.8195 114.723 89.6655 115.801C89.6655 115.801 91.278 114.644 92.0449 111.872L91.5829 110.743L77.7454 109.831Z" fill="#F9B499"/>
<path d="M77.7454 109.831C77.7454 109.831 83.1325 118.799 92.0449 111.872L91.5829 110.743L77.7454 109.831Z" fill="#F7A48B"/>
<path d="M152.389 174.994C150.731 176.642 148.402 178.104 146.198 179.275C144.193 180.325 142.125 181.252 140.007 182.051C139.943 182.073 139.891 182.12 139.861 182.18C139.83 182.241 139.825 182.311 139.846 182.375L140.114 183.254C140.17 183.438 140.161 183.635 140.089 183.813C140.016 183.991 139.885 184.139 139.716 184.231L128.337 190.441C128.147 190.545 127.924 190.572 127.716 190.515C127.507 190.458 127.329 190.322 127.219 190.135L126.027 188.127C126.006 188.093 125.978 188.065 125.946 188.043C125.913 188.022 125.876 188.007 125.837 188.002C125.798 187.996 125.759 187.999 125.721 188.01C125.684 188.021 125.649 188.041 125.62 188.067C124.329 189.238 122.938 190.293 121.462 191.218C118.373 193.173 114.984 194.605 111.431 195.457C111.381 195.467 111.329 195.467 111.279 195.456C111.229 195.445 111.182 195.423 111.141 195.391C111.1 195.36 111.066 195.321 111.042 195.275C111.018 195.23 111.004 195.18 111.002 195.128L110.914 192.976V192.921C110.899 192.783 110.855 192.649 110.784 192.53C110.713 192.41 110.616 192.308 110.501 192.23C110.386 192.152 110.256 192.1 110.119 192.078C109.982 192.056 109.842 192.064 109.708 192.102L108.899 192.333L105.402 193.328L101.479 194.448C101.307 194.496 101.155 194.601 101.051 194.747C100.946 194.892 100.893 195.069 100.902 195.248L101.003 197.868C101.01 197.995 100.99 198.123 100.944 198.242C100.899 198.362 100.829 198.47 100.74 198.562C100.644 198.664 100.525 198.743 100.394 198.793C89.305 202.999 80.3557 200.778 80.3557 200.778L80.6606 197.16C79.7533 197.109 78.8513 196.988 77.9624 196.799C75.3913 196.248 72.9453 195.222 70.7502 193.772C70.7502 192.674 70.781 191.594 70.8426 190.533V190.177C70.8796 189.427 70.9258 188.687 70.9813 187.96L71.009 187.613C71.1722 185.531 71.3955 183.55 71.6789 181.672C74.3725 163.597 81.8803 154.958 81.8803 154.958C81.7186 154.699 81.5662 154.435 81.4183 154.18C81.1226 153.685 80.8408 153.199 80.5682 152.723C79.367 150.613 78.3782 148.725 77.6113 147.17C75.5158 142.933 74.4789 138.25 74.5896 133.524C74.6202 131.344 74.9673 129.18 75.62 127.101C76.4932 124.417 77.5974 123.209 77.5974 123.209C79.5194 120.896 79.5194 119.364 79.5194 119.364L79.3669 114.514C82.846 114.43 86.3178 114.871 89.6654 115.824C91.8924 116.592 91.7399 118.36 91.7399 118.36C103.346 120.595 135.47 97.5781 135.47 97.5781C136.316 106.125 141.541 108.508 141.541 108.508C134.468 118.438 113.566 132.524 113.566 132.524L115.026 138.822L115.562 141.136C121.635 143.54 127.305 146.86 132.375 150.983C138.729 156.145 144.356 162.144 149.105 168.817L149.294 169.085C149.659 169.603 150.001 170.089 150.31 170.547C150.37 170.635 150.426 170.723 150.486 170.807C151.47 172.264 152.149 173.375 152.519 173.995C152.61 174.152 152.647 174.336 152.623 174.517C152.6 174.697 152.518 174.865 152.389 174.994Z" fill="#AD5FDD"/>
<path d="M83.7285 118.855C82.1946 118.855 80.6884 118.813 79.4548 118.693L79.501 118.23C83.8487 118.656 91.643 118.114 91.7215 118.11L91.7539 118.573C91.6984 118.573 87.6372 118.855 83.7285 118.855Z" fill="white"/>
<path d="M89.6886 118.526C89.6998 118.309 89.6679 118.092 89.5948 117.888C89.5218 117.683 89.4089 117.496 89.2628 117.335C89.1167 117.174 88.9403 117.045 88.7438 116.953C88.5472 116.861 88.3344 116.809 88.1178 116.8L79.3394 116.476V116.014L88.1178 116.338C88.6709 116.364 89.1916 116.607 89.5683 117.013C89.9449 117.42 90.1473 117.958 90.1322 118.512L89.6886 118.526Z" fill="white"/>
<g opacity="0.2">
<path d="M113.566 132.501L114.236 135.407L91.2964 141.122C91.2964 141.122 130.106 120.928 139.028 106.588C139.812 107.296 140.659 107.932 141.56 108.485C141.56 108.485 133.802 118.878 113.566 132.501Z" fill="black"/>
</g>
<g opacity="0.2">
<path d="M88.284 151.149C88.284 151.149 84.1258 152.209 80.5867 152.741C79.3854 150.631 78.3967 148.743 77.6298 147.188C75.525 142.948 74.4816 138.258 74.5896 133.524C74.6202 131.344 74.9673 129.18 75.62 127.101C75.5876 128.739 75.4398 145.328 88.284 151.149Z" fill="white"/>
</g>
<g opacity="0.2">
<path d="M132.416 151.052C127.833 148.54 121.263 145.282 118.556 143.958C118.063 143.713 117.519 143.585 116.969 143.585C116.418 143.585 115.875 143.713 115.382 143.958C113.644 144.927 112.005 146.065 110.489 147.355C106.293 151.069 101.119 153.496 95.584 154.347C88.4365 155.272 85.9739 156.582 85.9739 156.582C74.063 163.06 71.217 190.603 71.217 190.603C70.9166 185.711 73.2637 177.428 73.3654 177.067L71.7021 181.695C74.3957 163.62 81.9035 154.981 81.9035 154.981C81.7418 154.722 81.5893 154.458 81.4415 154.203L81.6817 154.166C92.5108 151.823 102.92 147.84 112.549 142.353L115.007 138.799L115.543 141.113C121.617 143.516 127.287 146.837 132.356 150.96L132.416 151.052Z" fill="black"/>
</g>
<path d="M149.294 169.071L149.123 169.113C145.686 169.525 141.449 172.741 139.231 174.62C138.504 175.237 137.843 175.929 137.258 176.683C136.397 177.737 135.327 178.601 134.116 179.22C132.905 179.84 131.579 180.202 130.222 180.283C127.547 180.497 124.972 181.397 122.746 182.898C121.864 183.49 121.286 183.958 121.282 183.962C117.719 186.327 112.134 187.035 109.897 187.229C109.477 187.262 109.019 187.28 108.447 187.275C105.106 187.275 99.5896 190.325 99.5388 190.357C96.7667 191.625 93.4678 192.005 90.5248 192.005C89.1803 192.005 87.9097 191.926 86.7916 191.815C84.4858 191.589 82.2011 191.184 79.9583 190.603C76.807 190.537 73.7308 189.626 71.0505 187.965L71.0783 187.618C73.7477 189.308 76.8285 190.233 79.986 190.293H80.023C82.2553 190.871 84.5291 191.275 86.824 191.5C90.3584 191.847 95.4129 191.884 99.4048 190.07C99.7051 189.904 105.065 186.956 108.46 186.956H108.571C109.089 186.956 109.495 186.956 109.907 186.905C112.115 186.716 117.632 186.021 121.138 183.694C121.203 183.643 121.776 183.185 122.621 182.616C124.893 181.089 127.518 180.171 130.245 179.95C131.554 179.873 132.833 179.525 134.001 178.93C135.17 178.334 136.203 177.503 137.036 176.489C137.639 175.722 138.315 175.017 139.056 174.384C141.301 172.482 145.589 169.229 149.109 168.808L149.294 169.071Z" fill="#741787"/>
<path d="M150.486 170.793C146.966 172.014 142.142 175.031 140.234 176.646C139.16 177.651 138.15 178.724 137.212 179.858C135.364 182.222 133.008 182.25 131.298 182.273C130.975 182.273 130.665 182.273 130.397 182.301C128.18 182.477 125.579 183.555 122.668 185.512C121.785 186.105 121.208 186.577 121.203 186.581C116.694 189.571 108.881 189.913 108.803 189.913C105.531 189.612 99.5159 192.939 99.4558 192.972C96.6837 194.235 93.3849 194.615 90.4418 194.615C89.0973 194.615 87.8267 194.536 86.7086 194.425C84.3888 194.204 82.09 193.801 79.8338 193.217C76.6535 193.151 73.5502 192.225 70.8521 190.538V190.181C73.5415 191.906 76.655 192.851 79.8476 192.912H79.8846C82.1195 193.504 84.3985 193.916 86.6994 194.143C90.2385 194.494 95.2884 194.527 99.2803 192.717C99.6037 192.537 105.448 189.321 108.789 189.622C109.107 189.622 116.643 189.233 121.014 186.341C121.078 186.29 121.651 185.832 122.497 185.263C125.449 183.277 128.101 182.181 130.374 182C130.652 181.977 130.966 181.972 131.298 181.968C132.943 181.968 135.198 181.917 136.977 179.654C137.927 178.509 138.95 177.427 140.04 176.415C141.948 174.8 146.753 171.788 150.315 170.538C150.371 170.621 150.435 170.709 150.486 170.793Z" fill="#741787"/>
<path d="M144.794 99.9427C145.316 99.864 145.718 99.6789 145.718 99.5309L138.002 47.1442C137.979 46.9961 137.54 46.9405 137.018 47.0146C136.496 47.0886 136.094 47.2737 136.117 47.4264L143.833 99.8131C143.833 99.9612 144.276 100.017 144.794 99.9427Z" fill="#AD5FDD"/>
<path d="M145.561 98.7211L145.625 99.0589C145.007 99.177 144.413 99.3958 143.865 99.7067L143.667 99.4244C144.254 99.0845 144.894 98.8467 145.561 98.7211Z" fill="white"/>
<path d="M145.205 96.3056L145.27 96.6434C144.653 96.7661 144.059 96.9847 143.509 97.2912L143.311 97.0089C143.899 96.6715 144.539 96.4338 145.205 96.3056Z" fill="white"/>
<path d="M144.849 93.8947L144.914 94.2325C144.296 94.3506 143.701 94.5695 143.154 94.8803L142.96 94.5981C143.545 94.258 144.184 94.0202 144.849 93.8947Z" fill="white"/>
<path d="M144.494 91.4792L144.558 91.817C143.941 91.9397 143.348 92.1583 142.798 92.4648L142.604 92.1826C143.191 91.8447 143.829 91.6069 144.494 91.4792Z" fill="white"/>
<path d="M144.138 89.0683L144.207 89.4061C143.588 89.5231 142.992 89.7404 142.442 90.0493L142.248 89.7717C142.834 89.4316 143.473 89.1938 144.138 89.0683Z" fill="white"/>
<path d="M143.782 86.6528L143.851 86.9906C143.232 87.11 142.636 87.3288 142.086 87.6385L141.892 87.3562C142.479 87.019 143.118 86.7813 143.782 86.6528Z" fill="white"/>
<path d="M143.426 84.242L143.496 84.5751C142.877 84.697 142.281 84.9156 141.731 85.223L141.537 84.9453C142.123 84.6067 142.762 84.369 143.426 84.242Z" fill="white"/>
<path d="M143.071 81.8264L143.14 82.1642C142.52 82.2813 141.924 82.5002 141.375 82.8121L141.181 82.5298C141.768 82.1933 142.406 81.9557 143.071 81.8264Z" fill="white"/>
<path d="M142.719 79.4156L142.784 79.7488C142.166 79.8706 141.57 80.0892 141.019 80.3966L140.825 80.1143C141.413 79.7776 142.054 79.5414 142.719 79.4156Z" fill="white"/>
<path d="M142.364 77.0001L142.428 77.3379C141.81 77.4545 141.215 77.6735 140.668 77.9857L140.469 77.7035C141.057 77.3636 141.697 77.1257 142.364 77.0001Z" fill="white"/>
<path d="M142.008 74.5846L142.073 74.9224C141.455 75.0436 140.861 75.2623 140.312 75.5702L140.114 75.288C140.703 74.9526 141.343 74.7151 142.008 74.5846Z" fill="white"/>
<path d="M141.657 72.1737L141.721 72.5115C141.103 72.6289 140.508 72.8478 139.961 73.1593L139.762 72.8771C140.35 72.5372 140.99 72.2994 141.657 72.1737Z" fill="white"/>
<path d="M141.296 69.7582L141.361 70.096C140.744 70.2187 140.15 70.4373 139.601 70.7438L139.402 70.4616C139.991 70.1262 140.631 69.8887 141.296 69.7582Z" fill="white"/>
<path d="M140.941 67.352L141.005 67.6898C140.387 67.8079 139.793 68.0268 139.245 68.3376L139.046 68.0553C139.634 67.7154 140.274 67.4776 140.941 67.352Z" fill="white"/>
<path d="M140.585 64.9319L140.65 65.2697C140.033 65.3924 139.439 65.611 138.889 65.9175L138.691 65.6352C139.279 65.2978 139.919 65.0601 140.585 64.9319Z" fill="white"/>
<path d="M140.229 62.521L140.294 62.8588C139.676 62.9767 139.082 63.1939 138.534 63.502L138.335 63.2243C138.922 62.8844 139.563 62.6466 140.229 62.521Z" fill="white"/>
<path d="M139.873 60.1055L139.938 60.4433C139.32 60.5637 138.726 60.7824 138.178 61.0911L137.979 60.8088C138.567 60.4714 139.207 60.2337 139.873 60.1055Z" fill="white"/>
<path d="M139.518 57.6946L139.582 58.0324C138.965 58.1504 138.37 58.3676 137.822 58.6756L137.628 58.398C138.213 58.0579 138.852 57.8201 139.518 57.6946Z" fill="white"/>
<path d="M139.162 55.2791L139.231 55.6169C138.611 55.734 138.015 55.9529 137.466 56.2647L137.272 55.9825C137.859 55.6446 138.497 55.4069 139.162 55.2791Z" fill="white"/>
<path d="M138.806 52.8682L138.875 53.2014C138.257 53.3232 137.661 53.5419 137.111 53.8492L136.917 53.567C137.503 53.2298 138.142 52.9936 138.806 52.8682Z" fill="white"/>
<path d="M138.45 50.4527L138.52 50.7905C137.9 50.9076 137.303 51.1265 136.755 51.4384L136.574 51.1561C137.156 50.8181 137.79 50.5804 138.45 50.4527Z" fill="white"/>
<path d="M138.095 48.0419L138.164 48.375C137.545 48.4969 136.95 48.7155 136.399 49.0229L136.205 48.7406C136.792 48.4048 137.431 48.1687 138.095 48.0419Z" fill="white"/>
<path d="M119.466 107.888L128.554 111.178L128.096 121.608L130.665 119.433L131.474 109.489L122.497 106.106L119.466 107.888Z" fill="#741787"/>
<path d="M135.47 97.555C135.47 97.555 142.077 103.867 141.541 108.485C141.541 108.485 136.316 106.102 135.47 97.555Z" fill="#AD5FDD"/>
<g opacity="0.3">
<path d="M135.47 97.555C135.47 97.555 142.077 103.867 141.541 108.485C141.541 108.485 136.316 106.102 135.47 97.555Z" fill="black"/>
</g>
<path d="M140.003 94.0937L135.715 99.1005C135.715 99.1005 136.15 103.492 139.231 106.643L144.997 99.6327C144.997 99.6327 150.454 95.8613 149.156 90.091C149.156 90.091 148.463 81.0814 144.618 83.3165C144.618 83.3165 142.77 83.7792 141.777 86.7037C141.777 86.7037 141.163 86.9351 141.163 85.7783C141.163 85.7783 141.047 83.7283 140.28 82.7149C140.25 82.6754 140.209 82.6459 140.162 82.6305C140.114 82.615 140.064 82.6142 140.016 82.6283C139.968 82.6423 139.926 82.6705 139.895 82.7091C139.864 82.7477 139.845 82.7949 139.841 82.8445C139.763 83.5978 139.64 84.3457 139.472 85.0841C139.472 85.0841 138.238 90.7805 140.003 94.0937Z" fill="#F9B499"/>
<path d="M79.5195 119.341C79.4826 120.919 77.5975 123.186 77.5975 123.186C76.1006 124.921 75.2551 128.23 75.2551 128.23L73.8413 127.027L70.1035 123.843C72.7925 118.29 74.8854 109.683 74.8854 109.683L77.3388 109.123L77.7454 109.831L78.711 112.608L79.367 114.496L79.5195 119.341Z" fill="#AD5FDD"/>
<g opacity="0.2">
<path d="M79.5196 119.341C79.4826 120.919 77.5975 123.186 77.5975 123.186C76.1006 124.921 75.2551 128.23 75.2551 128.23L73.8413 127.027L78.711 112.603L79.3671 114.491L79.5196 119.341Z" fill="black"/>
</g>
<path d="M69.4382 91.3449L85.4437 84.2312L93.0842 101.475C94.0261 103.601 94.0862 106.015 93.2514 108.185C92.4166 110.355 90.7553 112.104 88.6328 113.047C86.5104 113.991 84.1007 114.051 81.9339 113.215C79.7671 112.379 78.0206 110.715 77.0788 108.589L69.4382 91.3449Z" fill="#F9B499"/>
<path d="M76.0913 98.0732L76.9415 99.4892C76.9921 99.5652 77.0191 99.6546 77.0191 99.746C77.0191 99.8374 76.9921 99.9268 76.9415 100.003L76.0867 101.317C76.0446 101.38 76.0183 101.451 76.0103 101.526C76.0022 101.601 76.0126 101.677 76.0405 101.747C76.7273 103.559 77.2394 105.432 77.5698 107.342L72.2473 104.237C73.3139 103.006 73.8824 101.42 73.8413 99.79C74.6574 99.3104 75.4129 98.7339 76.0913 98.0732Z" fill="#741787"/>
<path d="M87.8589 91.9003L89.9888 94.4916L89.037 92.3677C89.037 92.3677 89.0093 91.9743 88.4549 91.9743L87.8589 91.9003Z" fill="#741787"/>
<path d="M77.1774 109.372C78.0471 108.501 77.6332 106.674 76.2529 105.292C74.8726 103.909 73.0486 103.495 72.1789 104.366C71.3093 105.237 71.7232 107.064 73.1035 108.446C74.4838 109.828 76.3077 110.243 77.1774 109.372Z" fill="#F9B499"/>
<path d="M73.832 99.79C73.832 99.79 74.294 103.029 71.0598 105.343C71.0598 105.343 69.3688 106.5 68.4494 104.033C68.4494 104.033 66.9894 102.881 67.9874 100.651C67.5319 99.938 67.2463 99.13 67.1526 98.289C67.0588 97.4481 67.1595 96.5969 67.4468 95.8012C67.4468 95.8012 65.6819 93.3348 67.9874 89.6421C68.4663 88.5972 69.1801 87.6776 70.0731 86.9551C70.966 86.2326 72.0137 85.7268 73.1343 85.4775C73.1343 85.4775 74.1369 82.1642 79.8198 82.0902C79.8198 82.0902 83.0539 80.9334 87.6742 85.0888L91.8323 90.0216C91.9254 90.129 92.0003 90.2509 92.0541 90.3825C92.4191 91.2293 93.5557 94.4777 90.9314 96.5832L89.0279 92.3723C88.9767 92.2592 88.8952 92.1625 88.7924 92.0931C88.6896 92.0236 88.5696 91.9841 88.4457 91.9789C87.5068 91.9831 86.5887 91.7024 85.8122 91.1738C85.8122 91.1738 84.3522 90.7851 82.0467 92.2473C82.0467 92.2473 78.3506 93.8669 77.7407 95.0978C77.7499 95.1163 77.3664 97.7863 73.832 99.79Z" fill="#AD5FDD"/>
<g opacity="0.2">
<path d="M67.4515 95.7873C68.1873 93.9277 69.4781 92.3408 71.1477 91.2432C71.1477 91.2432 73.0466 90.1187 74.2571 89.8781C74.38 89.8543 74.5069 89.8627 74.6255 89.9025C74.7442 89.9423 74.8505 90.0122 74.9342 90.1054C75.0179 90.1985 75.0761 90.3118 75.1032 90.4341C75.1303 90.5565 75.1253 90.6837 75.0888 90.8036C74.83 91.5671 74.0862 92.8628 71.9147 93.9225C71.7391 94.0451 71.571 94.1779 71.4111 94.3204C70.2706 95.3096 69.5569 96.7027 69.4198 98.2074C69.3366 99.0404 69.0917 100.243 68.3294 100.549C68.2435 100.578 68.1502 100.575 68.0658 100.542C67.9815 100.509 67.9113 100.448 67.8674 100.368C67.47 99.6975 66.5829 97.7169 67.4515 95.7873Z" fill="black"/>
</g>
<g opacity="0.2">
<path d="M78.138 83.6219L77.2139 85.7042C74.4618 86.7425 72.1118 88.6325 70.5054 91.0998C70.3481 91.293 70.1628 91.4614 69.9556 91.5995C69.81 91.6968 69.6385 91.7481 69.4635 91.7466C69.2885 91.7451 69.1179 91.691 68.974 91.5912C68.83 91.4914 68.7193 91.3506 68.6563 91.1871C68.5932 91.0235 68.5807 90.8448 68.6203 90.674C68.8837 89.4524 69.8216 87.06 73.125 85.459C73.1389 85.4728 75.2134 83.0064 78.138 83.6219Z" fill="black"/>
</g>
<g opacity="0.2">
<path d="M69.0502 103.446C68.9731 103.3 68.9403 103.134 68.9559 102.97C68.9715 102.805 69.0348 102.649 69.138 102.52C69.6 101.928 70.4732 100.762 70.524 100.04C70.598 99.0357 69.831 98.0362 72.215 95.4125C73.5237 94.0749 74.657 92.5759 75.5878 90.9517C75.9382 90.2779 76.1622 89.5454 76.2485 88.7907C76.4252 87.5854 76.9523 86.4588 77.7639 85.5515L79.8384 82.0902C79.8384 82.0902 81.6588 81.6552 83.0171 82.3355C83.0171 82.3355 79.612 86.5557 78.919 88.9388C78.3281 90.714 77.2093 92.2657 75.7125 93.3857C75.5711 93.4887 75.4543 93.6218 75.3704 93.7754C75.2865 93.929 75.2377 94.0993 75.2274 94.2741C75.1948 95.2452 74.9134 96.1916 74.4101 97.0222C73.9068 97.8529 73.1986 98.5399 72.3536 99.0172C72.601 99.833 72.6093 100.703 72.3775 101.523C72.1457 102.343 71.6836 103.08 71.0461 103.645C71.0461 103.645 70.0482 104.801 69.198 103.723C69.1437 103.634 69.0944 103.541 69.0502 103.446Z" fill="black"/>
</g>
<g opacity="0.2">
<path d="M81.7464 84.7001L80.3604 87.2405C80.3604 87.2405 82.7444 86.0096 84.7403 87.0878C84.7403 87.0878 85.3548 87.9346 87.9745 88.166L89.3051 88.3233C89.3625 88.3338 89.4218 88.3261 89.4747 88.3014C89.5276 88.2767 89.5716 88.2362 89.6005 88.1854C89.6294 88.1346 89.6418 88.0761 89.6361 88.0179C89.6304 87.9597 89.6067 87.9047 89.5685 87.8606C88.7969 86.824 86.5561 84.5242 81.7464 84.7001Z" fill="black"/>
</g>
<g opacity="0.2">
<path d="M78.8218 93.6587C78.3847 93.9578 77.9966 94.3231 77.6713 94.7415C77.4588 95.0099 77.1677 95.2042 76.8536 94.9405C76.2391 94.3991 76.4701 92.9368 78.004 92.09C78.004 92.09 81.0025 90.239 82.384 90.475C81.3372 91.6843 80.1401 92.7542 78.8218 93.6587Z" fill="black"/>
</g>
<g opacity="0.2">
<path d="M81.9035 88.3187C81.9035 88.3187 79.367 88.0133 79.367 89.1655C79.367 89.1655 78.2119 90.9378 79.829 90.3964C81.6674 89.7489 83.6104 89.4507 85.558 89.5172C86.5492 89.5529 87.518 89.8224 88.3856 90.3038C89.4899 90.9147 90.7881 91.9373 90.7466 93.3209L90.5294 95.6809L90.9452 96.5786C91.7593 96.0034 92.3216 95.137 92.5161 94.1585C92.7428 93.0795 92.556 91.9547 91.9927 91.0074C91.4295 90.0601 90.5311 89.3596 89.476 89.0452C87.0213 88.321 84.4508 88.0743 81.9035 88.3187Z" fill="black"/>
</g>
<path d="M81.9036 154.976L80.5176 152.75C80.5176 152.75 102.427 149.701 114.901 138.369L115.543 141.122C115.543 141.122 102.884 154.439 81.9036 154.976Z" fill="#741787"/>
<g opacity="0.2">
<path d="M126.026 188.127C126.006 188.093 125.978 188.065 125.946 188.043C125.913 188.022 125.876 188.007 125.837 188.002C125.798 187.996 125.759 187.999 125.721 188.01C125.684 188.021 125.649 188.041 125.62 188.067C124.329 189.238 122.938 190.293 121.462 191.218C119.387 181.676 112.623 155.971 112.549 155.735C114.859 160.048 125.948 187.909 126.026 188.127Z" fill="black"/>
</g>
<g opacity="0.2">
<path d="M146.198 179.275C144.193 180.325 142.125 181.252 140.007 182.051C139.943 182.073 139.891 182.12 139.861 182.18C139.83 182.241 139.825 182.311 139.846 182.375C135.771 174.046 124.479 157.271 124.479 157.271C129.723 161.288 145.399 178.409 146.198 179.275Z" fill="black"/>
</g>
<g opacity="0.2">
<path d="M105.411 193.328L101.489 194.448C101.316 194.496 101.165 194.601 101.06 194.747C100.955 194.892 100.903 195.069 100.911 195.248L101.013 197.868C101.019 197.995 100.999 198.123 100.954 198.242C100.908 198.362 100.839 198.47 100.749 198.562C100.019 192.953 97.7371 174.097 99.04 166.6C99.04 166.6 100.634 185.503 105.411 193.328Z" fill="black"/>
</g>
<g opacity="0.2">
<path d="M110.923 192.921C110.909 192.783 110.864 192.649 110.793 192.53C110.722 192.41 110.625 192.308 110.511 192.23C110.396 192.152 110.265 192.1 110.128 192.078C109.991 192.056 109.851 192.064 109.717 192.102L108.909 192.333C108.738 189.094 108.142 177.063 108.34 173.222C108.34 173.222 110.35 184.508 110.923 192.921Z" fill="black"/>
</g>
<g opacity="0.2">
<path d="M83.442 180.071C82.3655 184.536 80.6699 197.16 80.6699 197.16C79.7626 197.109 78.8605 196.988 77.9717 196.799C79.8613 182.486 83.442 180.071 83.442 180.071Z" fill="black"/>
</g>
<path d="M222.099 104.718L221.758 104.404C221.868 104.288 224.437 101.525 227.353 100.299L227.533 100.725C224.71 101.914 222.123 104.69 222.099 104.718Z" fill="#AD5FDD"/>
<path d="M219.803 107.434C219.803 107.434 220.967 118.54 227.81 121.317L230.12 117.615C230.12 117.615 222.483 111.891 219.803 107.434Z" fill="#F7A48B"/>
<path d="M231.668 123.803C233.548 121.55 234.18 118.977 233.08 118.055C231.98 117.134 229.563 118.214 227.683 120.467C225.803 122.72 225.171 125.293 226.271 126.215C227.371 127.136 229.787 126.056 231.668 123.803Z" fill="#F9B499"/>
<path d="M214.485 106.925C214.709 106.406 214.962 105.899 215.243 105.408C215.609 104.762 216.019 104.144 216.472 103.557L221.929 104.556C221.929 104.556 225.116 116.754 234.301 117.564L234.38 120.257C234.38 120.257 223.754 121.03 219.776 106.865L214.485 106.925Z" fill="#AD5FDD"/>
<path d="M220.235 108.216C221.119 107.238 221.326 105.984 220.698 105.414C220.07 104.845 218.844 105.176 217.961 106.154C217.077 107.131 216.87 108.386 217.498 108.955C218.126 109.524 219.352 109.193 220.235 108.216Z" fill="#AD5FDD"/>
<path d="M218.288 109.461C217.94 109.47 217.602 109.348 217.341 109.119C216.606 108.452 216.8 107.078 217.803 105.991C218.805 104.903 220.136 104.57 220.87 105.232C221.605 105.894 221.406 107.272 220.408 108.365C220.147 108.682 219.825 108.942 219.46 109.131C219.096 109.319 218.697 109.432 218.288 109.461ZM219.909 105.361C219.567 105.39 219.233 105.487 218.927 105.646C218.622 105.804 218.351 106.022 218.131 106.287C217.345 107.152 217.128 108.286 217.669 108.763C218.209 109.239 219.295 108.906 220.08 108.036C220.866 107.166 221.083 106.037 220.542 105.565C220.363 105.422 220.138 105.352 219.909 105.366V105.361Z" fill="#741787"/>
<path d="M191.093 141.506L191.167 143.431L194.244 143.815C194.244 143.815 193.782 130.169 196.388 127.217C195.32 127.036 194.237 126.949 193.154 126.957C193.154 126.957 190.266 130.423 191.093 141.506Z" fill="#741787"/>
<g opacity="0.2">
<path d="M191.186 143.431L202.561 145.509C202.561 145.509 203.175 147.744 208.405 149.28C207.388 149.276 206.382 149.069 205.445 148.672C204.508 148.275 203.659 147.695 202.949 146.966C202.949 146.966 204.483 149.891 208.493 152.126C208.493 152.126 204.113 150.895 201.96 146.814C201.96 146.814 204.422 154.972 211.57 157.822C211.57 157.822 203.254 155.666 200.195 145.967L191.186 143.431Z" fill="black"/>
</g>
<g opacity="0.2">
<path d="M228.203 139.738C227.883 140.994 227.466 142.222 226.955 143.412C224.932 148.123 222.219 153.13 220.861 155.555C220.399 156.402 219.868 157.221 219.318 158.021C215.968 162.88 215.09 166.679 215.09 166.679C214.725 166.85 214.351 167.003 213.972 167.142C213.51 163.44 215.03 160.367 215.954 158.873C216.372 158.206 216.665 157.469 216.818 156.698C217.377 153.921 218.44 152.843 218.981 152.468C219.481 152.131 219.932 151.726 220.321 151.265C222.723 148.354 222.515 144.481 222.515 144.481C224.728 145.134 226.572 141.316 227.413 139.183C227.935 137.879 228.203 136.488 228.203 135.083C228.203 131.936 226.849 130.423 226.849 130.423C230.157 130.257 229.044 136.407 228.203 139.738Z" fill="black"/>
</g>
<g opacity="0.2">
<path d="M191.416 159.136L190.4 164.467C188.778 163.828 187.808 163.366 187.808 163.366L188.875 157.942C188.977 157.401 189.106 156.865 189.263 156.337C189.79 154.634 189.079 152.801 188.64 151.908C188.209 151.028 187.899 150.095 187.716 149.132C186.565 143.278 191.13 141.487 191.13 141.487C191.13 141.487 187.619 145.277 188.57 148.604C188.675 148.958 188.855 149.285 189.097 149.562C189.887 150.539 192.183 153.778 191.416 159.136Z" fill="white"/>
</g>
<path d="M160.992 108.402C161.307 106.865 162.716 102.705 168.717 104.436C168.773 104.451 168.832 104.449 168.887 104.432C168.942 104.415 168.991 104.382 169.028 104.338C169.065 104.294 169.089 104.24 169.097 104.183C169.105 104.126 169.097 104.067 169.073 104.015L166.694 98.8877C166.59 98.6609 166.427 98.467 166.22 98.3274C166.014 98.1878 165.773 98.1079 165.525 98.0964C163.607 97.9992 159.024 98.2398 158.548 102.664C158.527 102.867 158.542 103.072 158.594 103.27C158.742 103.876 159.218 105.389 160.664 108.443C160.681 108.476 160.707 108.502 160.739 108.519C160.771 108.536 160.807 108.543 160.843 108.538C160.879 108.534 160.913 108.518 160.939 108.494C160.966 108.469 160.985 108.437 160.992 108.402Z" fill="#AD5FDD"/>
</svg>
