<?xml version="1.0" encoding="UTF-8"?>
<svg xmlns="http://www.w3.org/2000/svg" id="a" viewBox="0 0 865.76 682.89">
  <g>
    <ellipse cx="202.06" cy="243.11" rx="61.55" ry="186.91" transform="translate(-96.84 140.18) rotate(-31.27)" fill="#0071f2"></ellipse>
    <g opacity=".2">
      <path d="M293.03,399.85c-.18,0-.36-.1-.45-.27-30.63-60.02-154.05-259.67-155.3-261.68-.15-.23-.07-.54,.16-.69,.24-.15,.54-.07,.69,.16,1.24,2.01,124.68,201.69,155.34,261.76,.13,.25,.03,.55-.22,.67-.07,.04-.15,.05-.23,.05Z"></path>
    </g>
    <g opacity=".2">
      <path d="M184.42,214.26c-.11,0-.21-.03-.3-.1-20.84-15.48-56.98-28.04-57.34-28.17-.26-.09-.4-.37-.31-.64s.37-.4,.64-.31c.36,.12,35.83,12.45,56.9,27.78,.58-5.87,4.35-39.32,16.78-56.44,.16-.22,.48-.27,.7-.11,.22,.16,.27,.48,.11,.7-13.42,18.48-16.64,56.43-16.67,56.81-.01,.18-.13,.34-.29,.42-.07,.03-.14,.04-.21,.04Z"></path>
    </g>
    <g opacity=".2">
      <path d="M220.94,273.96c-.11,0-.21-.03-.3-.1-20.84-15.48-56.98-28.04-57.34-28.17-.26-.09-.4-.37-.31-.64,.09-.26,.37-.4,.64-.31,.36,.12,35.83,12.45,56.9,27.78,.58-5.87,4.35-39.32,16.78-56.44,.16-.22,.48-.27,.7-.11,.22,.16,.27,.48,.11,.7-13.42,18.48-16.64,56.43-16.67,56.82-.01,.18-.13,.34-.29,.42-.07,.03-.14,.04-.21,.04Z"></path>
    </g>
    <g opacity=".2">
      <path d="M259.01,339.48c-.11,0-.21-.03-.3-.1-20.84-15.48-56.98-28.04-57.34-28.17-.26-.09-.4-.37-.31-.64,.09-.26,.37-.4,.64-.31,.36,.12,35.83,12.45,56.9,27.78,.58-5.87,4.34-39.32,16.78-56.44,.16-.22,.48-.27,.7-.11,.22,.16,.27,.48,.11,.7-13.42,18.48-16.64,56.43-16.67,56.81-.01,.18-.13,.34-.29,.42-.07,.03-.14,.04-.21,.04Z"></path>
    </g>
  </g>
  <g>
    <path d="M247.01,582.81c-.25,0-.48-.14-.6-.38-.5-1.08-50.8-108.87-130.29-149.59-.32-.17-.45-.56-.28-.88,.16-.32,.56-.45,.88-.28,41.76,21.4,75.13,61.11,95.76,90.65,22.34,31.99,34.99,59.29,35.12,59.56,.15,.33,0,.72-.32,.87-.09,.04-.18,.06-.27,.06Z" fill="#2f2e41"></path>
    <path d="M127.09,438.24c-.05,0-.11,0-.16-.02-30.14-7.63-40.31-16.87-43.54-23.28-1.15-2.28-.99-4.94,.42-7.1,1.43-2.19,3.83-3.41,6.42-3.27,19.53,1.07,36.71,31.4,37.43,32.69,.13,.23,.11,.51-.05,.72-.13,.16-.32,.26-.52,.26Zm-37.26-32.37c-1.99,0-3.81,.99-4.92,2.68-1.15,1.76-1.28,3.93-.35,5.79,3.05,6.06,12.7,14.79,41.17,22.21-3.62-5.97-19.04-29.77-35.56-30.68-.11,0-.22,0-.33,0Z" fill="#2f2e41"></path>
    <path d="M138.54,468.02c-16.36,0-24.85-3.76-29.25-7.55-2.28-1.97-3.38-5.04-2.86-8.01,.47-2.7,2.2-4.86,4.63-5.79,19.54-7.47,50.76,17.01,52.08,18.05,.2,.16,.29,.43,.23,.68s-.27,.44-.53,.48c-9.59,1.51-17.6,2.14-24.3,2.14Zm-19.32-21.44c-2.71,0-5.3,.4-7.69,1.31-2.02,.77-3.41,2.52-3.8,4.79-.44,2.52,.49,5.13,2.43,6.8,5.9,5.08,19.52,10.08,50.96,5.34-5.15-3.83-25.61-18.24-41.89-18.24Z" fill="#2f2e41"></path>
    <path d="M161.19,492.01c-16.36,0-24.85-3.76-29.25-7.55-2.28-1.97-3.38-5.04-2.86-8.01,.47-2.7,2.2-4.86,4.63-5.79,19.54-7.47,50.76,17.01,52.08,18.05,.2,.16,.29,.43,.23,.68s-.27,.44-.53,.48c-9.59,1.51-17.6,2.14-24.3,2.14Zm-19.33-21.44c-2.71,0-5.3,.4-7.69,1.31-2.02,.77-3.41,2.52-3.8,4.79-.44,2.52,.49,5.13,2.43,6.8,5.9,5.08,19.52,10.08,50.96,5.34-5.15-3.83-25.61-18.24-41.89-18.24Z" fill="#2f2e41"></path>
    <path d="M176.77,480.22s-.02,0-.02,0c-.26,0-.48-.17-.58-.41-.67-1.63-16.19-40.14-4.41-53.34,1.22-1.37,3.07-1.94,5.21-1.61,3.38,.52,6.68,3.15,8.2,6.54,3.53,7.87,5.05,22.67-7.81,48.45-.11,.22-.34,.36-.59,.36Zm-.95-54.13c-1.27,0-2.35,.43-3.09,1.26-10.04,11.24,1.42,43.52,4.11,50.59,11.92-24.49,10.49-38.51,7.13-45.99-1.35-3-4.24-5.33-7.21-5.79-.32-.05-.64-.07-.94-.07Z" fill="#2f2e41"></path>
    <path d="M202.09,509.53s-.02,0-.02,0c-.26,0-.48-.17-.58-.41-.67-1.63-16.19-40.14-4.41-53.34,1.22-1.37,3.07-1.94,5.21-1.61,3.38,.52,6.68,3.15,8.2,6.54,3.53,7.87,5.05,22.67-7.81,48.45-.11,.22-.34,.36-.59,.36Zm-.95-54.13c-1.27,0-2.35,.43-3.09,1.26-10.04,11.24,1.42,43.52,4.11,50.59,11.92-24.5,10.49-38.52,7.13-45.99-1.35-3-4.24-5.33-7.21-5.79-.32-.05-.64-.07-.94-.07Z" fill="#2f2e41"></path>
    <path d="M175.87,521.25c-9.36,0-18.48-1.67-23.46-7.09-1.39-1.52-1.84-3.69-1.23-5.97,.87-3.25,3.61-6.02,6.97-7.07,8.15-2.54,23.21-2.07,48.66,14.62,.22,.14,.33,.4,.29,.65s-.23,.46-.47,.53c-1.03,.28-16.18,4.33-30.75,4.33Zm-9.64-19.97c-3.08,0-5.62,.44-7.7,1.09-2.94,.92-5.33,3.34-6.09,6.16-.5,1.86-.17,3.55,.93,4.74,10.89,11.84,44.12,4.54,51.46,2.75-17.76-11.43-30.19-14.74-38.61-14.74Z" fill="#2f2e41"></path>
    <path d="M199.57,549.53c-10.64,0-21.64-1.86-27.56-8.36-1.58-1.73-2.07-4.16-1.35-6.65,.91-3.16,3.48-5.69,6.71-6.6,8.19-2.3,23.53-1.19,50.1,17.15,.21,.15,.32,.41,.27,.66-.05,.25-.24,.46-.49,.52-.95,.23-14.02,3.29-27.68,3.29Zm-15.32-21.19c-2.57,0-4.73,.33-6.53,.84-2.76,.77-5.03,3.01-5.81,5.7-.59,2.05-.2,4.02,1.06,5.41,11.58,12.74,45.07,6.56,52.5,5-19.53-13.26-32.66-16.95-41.23-16.95Z" fill="#2f2e41"></path>
    <path d="M203.9,578.27c-7.89,0-15.02-1.45-19.02-5.71-1.22-1.29-1.61-3.14-1.12-5.21,.84-3.54,4.1-6.97,7.91-8.35,8.68-3.15,24.36-3.73,49.76,11.36,.22,.13,.34,.38,.32,.64-.03,.26-.2,.47-.45,.55-1.21,.4-20.93,6.73-37.4,6.73Zm-1.15-19.77c-4.36,0-7.87,.73-10.64,1.73-3.42,1.24-6.34,4.3-7.08,7.43-.27,1.15-.36,2.77,.8,4.01,10.57,11.24,46.11,1.33,53.65-.93-16.1-9.35-28.08-12.23-36.73-12.23Z" fill="#2f2e41"></path>
    <path d="M214.7,528.51c-.1,0-.19-.02-.28-.06-.23-.11-.38-.35-.37-.61,.81-32.01,8.62-44.8,15.02-49.89,2.46-1.95,5.8-2.5,8.72-1.42,2.46,.91,4.14,2.78,4.61,5.15,3.86,19.6-25.99,45.58-27.26,46.67-.12,.1-.27,.16-.43,.16Zm20.02-51.21c-1.73,0-3.45,.58-4.84,1.68-6.09,4.83-13.48,16.98-14.48,47.37,5.49-5.02,29.01-27.66,25.71-44.42-.38-1.91-1.75-3.43-3.77-4.17-.84-.31-1.73-.46-2.61-.46Z" fill="#2f2e41"></path>
    <path d="M158.91,463.04c-.17,0-.34-.07-.46-.19-21.21-21.36-24.62-36.09-23.74-44.68,.37-3.62,2.59-6.95,5.66-8.5,2.08-1.05,4.18-1.06,5.91-.03,15.97,9.47,13.41,51.03,13.29,52.79-.02,.26-.18,.48-.42,.57-.07,.03-.15,.04-.23,.04Zm-15.43-52.85c-.81,0-1.67,.22-2.53,.65-2.63,1.33-4.62,4.33-4.94,7.46-.84,8.17,2.4,22.15,22.32,42.56,.31-7.59,.92-42-12.73-50.1-.64-.38-1.36-.57-2.12-.57Z" fill="#2f2e41"></path>
  </g>
  <ellipse cx="683.44" cy="427.2" rx="156.2" ry="51.44" transform="translate(-19.84 820.88) rotate(-61.25)" fill="#0071f2"></ellipse>
  <g opacity=".2">
    <path d="M608.33,558.8c-.09,0-.19-.03-.27-.08-.23-.15-.3-.46-.15-.69,30.66-47.24,123.64-219.95,124.57-221.69,.13-.24,.43-.33,.68-.2,.24,.13,.33,.43,.2,.68-.94,1.74-93.94,174.48-124.61,221.76-.1,.15-.26,.23-.42,.23Z"></path>
  </g>
  <g opacity=".2">
    <path d="M697.32,402.68c-.1,0-.2-.03-.29-.09-.15-.11-.23-.28-.21-.46,2.5-21.54-3.49-52.93-3.55-53.24-.05-.27,.12-.53,.4-.59,.27-.05,.53,.12,.59,.4,.06,.31,5.93,31.01,3.66,52.67,4.84-2.19,30.33-13.21,47.77-11.37,.27,.03,.47,.27,.45,.55-.03,.27-.27,.48-.55,.44-18.96-2-47.76,11.51-48.04,11.65-.07,.03-.14,.05-.21,.05Z"></path>
  </g>
  <g opacity=".2">
    <path d="M669.35,454.04c-.1,0-.2-.03-.29-.09-.15-.11-.23-.28-.21-.46,2.5-21.54-3.49-52.93-3.55-53.24-.05-.27,.12-.53,.4-.59,.27-.06,.53,.12,.59,.4,.06,.31,5.93,31.01,3.66,52.67,4.84-2.19,30.33-13.2,47.77-11.37,.27,.03,.47,.27,.45,.55-.03,.27-.27,.48-.55,.44-18.96-2-47.76,11.51-48.04,11.65-.07,.03-.14,.05-.21,.05Z"></path>
  </g>
  <g opacity=".2">
    <path d="M637.82,508.96c-.1,0-.2-.03-.29-.09-.15-.11-.23-.28-.21-.46,2.5-21.54-3.49-52.93-3.55-53.24-.05-.27,.12-.53,.4-.59,.27-.06,.53,.12,.59,.4,.06,.31,5.93,31.01,3.66,52.67,4.84-2.19,30.33-13.2,47.77-11.37,.27,.03,.47,.27,.45,.55-.03,.27-.28,.48-.55,.44-18.96-2-47.76,11.51-48.04,11.65-.07,.03-.14,.05-.21,.05Z"></path>
  </g>
  <g>
    <path d="M657.66,315.72c-.07,0-.14-.01-.21-.05-.25-.12-.36-.41-.25-.66,.38-.83,38.92-83.41,99.9-114.66,.25-.13,.55-.03,.67,.22,.13,.25,.03,.55-.22,.67-60.68,31.09-99.07,113.36-99.45,114.19-.08,.18-.27,.29-.45,.29Z" fill="#2f2e41"></path>
    <path d="M749.19,205.36c-.15,0-.3-.07-.4-.2-.12-.16-.14-.37-.04-.55,.55-.99,13.67-24.14,28.57-24.95,1.97-.11,3.81,.82,4.9,2.49,1.08,1.65,1.2,3.67,.32,5.42-2.47,4.89-10.23,11.95-33.24,17.77-.04,.01-.08,.02-.12,.02Zm28.44-24.71c-.08,0-.17,0-.25,0-12.61,.69-24.38,18.86-27.15,23.42,21.73-5.67,29.09-12.33,31.42-16.95,.72-1.42,.62-3.07-.26-4.42-.85-1.3-2.24-2.05-3.76-2.05Z" fill="#2f2e41"></path>
    <path d="M740.45,228.1c-5.11,0-11.23-.48-18.54-1.64-.2-.03-.36-.17-.41-.37-.05-.19,.02-.4,.17-.52,1.01-.8,24.84-19.48,39.76-13.78,1.85,.71,3.17,2.36,3.53,4.42,.4,2.27-.44,4.61-2.18,6.12-3.36,2.89-9.84,5.76-22.33,5.76Zm-17.23-2.44c24,3.62,34.4-.2,38.9-4.08,1.48-1.27,2.19-3.26,1.85-5.19-.3-1.74-1.36-3.07-2.9-3.66-12.78-4.88-33.26,9.51-37.85,12.92Z" fill="#2f2e41"></path>
    <path d="M723.16,246.4c-5.11,0-11.22-.48-18.54-1.64-.2-.03-.36-.17-.41-.37-.05-.19,.02-.4,.17-.52,1.01-.8,24.84-19.48,39.76-13.78,1.85,.71,3.17,2.36,3.53,4.42,.4,2.27-.44,4.61-2.18,6.12-3.36,2.89-9.84,5.76-22.33,5.76Zm-17.23-2.44c24,3.62,34.4-.2,38.9-4.08,1.48-1.27,2.19-3.26,1.85-5.19-.3-1.74-1.36-3.07-2.9-3.66-12.78-4.89-33.26,9.51-37.85,12.92Z" fill="#2f2e41"></path>
    <path d="M711.27,237.4c-.19,0-.36-.11-.45-.28-9.82-19.68-8.66-30.97-5.96-36.98,1.16-2.59,3.68-4.59,6.26-4.99,1.63-.25,3.04,.18,3.97,1.23,9,10.07-2.85,39.46-3.36,40.71-.07,.18-.25,.3-.44,.31,0,0-.01,0-.02,0Zm.72-41.32c-.23,0-.47,.02-.72,.06-2.26,.35-4.47,2.12-5.5,4.42-2.56,5.71-3.66,16.41,5.44,35.11,2.05-5.4,10.8-30.04,3.13-38.62-.56-.63-1.39-.96-2.36-.96Z" fill="#2f2e41"></path>
    <path d="M691.95,259.78c-.19,0-.36-.11-.45-.28-9.82-19.68-8.66-30.97-5.96-36.98,1.16-2.59,3.68-4.59,6.26-4.99,1.63-.25,3.04,.18,3.97,1.23,9,10.07-2.85,39.46-3.36,40.71-.07,.18-.25,.3-.44,.31,0,0-.01,0-.02,0Zm.72-41.32c-.23,0-.47,.02-.72,.06-2.26,.35-4.47,2.12-5.5,4.42-2.56,5.71-3.66,16.41,5.44,35.11,2.05-5.4,10.8-30.04,3.13-38.62-.56-.63-1.39-.96-2.36-.96Z" fill="#2f2e41"></path>
    <path d="M711.96,268.73c-11.12,0-22.69-3.09-23.47-3.31-.19-.05-.33-.21-.36-.4-.03-.19,.06-.39,.22-.5,19.43-12.74,30.92-13.1,37.15-11.16,2.57,.8,4.65,2.92,5.32,5.4,.47,1.74,.12,3.4-.94,4.56-3.8,4.14-10.77,5.41-17.91,5.41Zm-22.11-3.99c5.6,1.37,30.97,6.94,39.28-2.1,.84-.91,1.09-2.2,.71-3.62-.58-2.16-2.4-4-4.65-4.7-5.92-1.85-16.83-1.5-35.34,10.42Z" fill="#2f2e41"></path>
    <path d="M693.87,290.31c-10.43,0-20.4-2.34-21.13-2.51-.19-.05-.34-.2-.38-.39-.04-.19,.04-.39,.21-.5,20.28-14,31.99-14.85,38.24-13.09,2.47,.69,4.43,2.62,5.12,5.04,.55,1.9,.17,3.76-1.03,5.08-4.52,4.96-12.91,6.38-21.03,6.38Zm-19.78-3.24c5.67,1.19,31.23,5.9,40.07-3.82,.97-1.06,1.26-2.57,.81-4.13-.59-2.05-2.33-3.76-4.43-4.35-5.95-1.67-17.08-.86-36.45,12.3Z" fill="#2f2e41"></path>
    <path d="M690.57,312.25c-12.57,0-27.62-4.83-28.54-5.14-.19-.06-.32-.23-.34-.42-.02-.2,.07-.38,.24-.48,19.39-11.52,31.36-11.07,37.98-8.67,2.91,1.06,5.4,3.68,6.04,6.38,.38,1.58,.07,2.99-.86,3.98-3.05,3.25-8.5,4.36-14.52,4.36Zm-27.16-5.75c5.76,1.73,32.89,9.29,40.95,.71,.88-.94,.82-2.18,.61-3.06-.57-2.39-2.79-4.72-5.41-5.67-6.31-2.29-17.68-2.72-36.16,8.01Z" fill="#2f2e41"></path>
    <path d="M682.32,274.27c-.12,0-.23-.04-.33-.12-.97-.84-23.76-20.66-20.81-35.63,.36-1.81,1.64-3.24,3.52-3.93,2.23-.82,4.78-.4,6.65,1.09,4.89,3.88,10.85,13.64,11.47,38.08,0,.2-.11,.38-.29,.46-.07,.03-.14,.05-.21,.05Zm-15.28-39.09c-.67,0-1.35,.12-2,.35-1.54,.57-2.59,1.73-2.88,3.19-2.52,12.79,15.43,30.07,19.62,33.9-.76-23.2-6.41-32.47-11.05-36.16-1.06-.84-2.37-1.28-3.69-1.28Z" fill="#2f2e41"></path>
    <path d="M724.91,224.29c-.06,0-.12-.01-.18-.03-.18-.07-.31-.24-.32-.44-.09-1.35-2.04-33.07,10.15-40.3,1.32-.78,2.92-.77,4.51,.03,2.34,1.18,4.03,3.72,4.32,6.49,.67,6.56-1.93,17.8-18.12,34.11-.1,.1-.22,.15-.35,.15Zm11.78-40.34c-.58,0-1.13,.15-1.62,.44-10.42,6.18-9.95,32.45-9.71,38.24,15.2-15.58,17.67-26.25,17.04-32.49-.24-2.39-1.76-4.68-3.77-5.69-.66-.33-1.31-.5-1.93-.5Z" fill="#2f2e41"></path>
  </g>
  <g>
    <rect x="233.14" y="49.85" width="428.99" height="575.57" fill="#2f2e41"></rect>
    <rect x="273.43" y="99.99" width="348.41" height="475.29" fill="#fffdfd"></rect>
    <rect x="291.43" y="124.55" width="312.41" height="426.18" fill="#f1f2f2"></rect>
    <g opacity=".2">
      <rect x="252.79" y="42.76" width="1" height="64.32" transform="translate(8.92 175.17) rotate(-38.78)"></rect>
    </g>
    <g opacity=".2">
      <rect x="609.83" y="74.42" width="64.32" height="1" transform="translate(181.54 528.52) rotate(-51.23)"></rect>
    </g>
    <g opacity=".2">
      <rect x="641.49" y="568.19" width="1" height="64.32" transform="translate(-234.5 534.5) rotate(-38.78)"></rect>
    </g>
    <g opacity=".2">
      <rect x="221.13" y="599.85" width="64.32" height="1" transform="translate(-373.41 421.95) rotate(-51.24)"></rect>
    </g>
    <g>
      <g>
        <polygon points="362.71 60.58 367.77 70.83 379.07 72.47 370.89 80.45 372.82 91.71 362.71 86.4 352.59 91.71 354.53 80.45 346.34 72.47 357.65 70.83 362.71 60.58" fill="#fff"></polygon>
        <polygon points="364.76 59.61 369.82 69.85 381.12 71.5 372.94 79.47 374.87 90.73 364.76 85.42 354.64 90.73 356.58 79.47 348.39 71.5 359.7 69.85 364.76 59.61" fill="#0071f2"></polygon>
      </g>
      <g>
        <polygon points="404.66 60.58 409.72 70.83 421.03 72.47 412.84 80.45 414.78 91.71 404.66 86.4 394.55 91.71 396.48 80.45 388.3 72.47 399.6 70.83 404.66 60.58" fill="#fff"></polygon>
        <polygon points="406.71 59.61 411.77 69.85 423.08 71.5 414.89 79.47 416.82 90.73 406.71 85.42 396.6 90.73 398.53 79.47 390.35 71.5 401.65 69.85 406.71 59.61" fill="#0071f2"></polygon>
      </g>
      <g>
        <polygon points="446.61 60.58 451.67 70.83 462.98 72.47 454.8 80.45 456.73 91.71 446.61 86.4 436.5 91.71 438.43 80.45 430.25 72.47 441.56 70.83 446.61 60.58" fill="#fff"></polygon>
        <polygon points="448.66 59.61 453.72 69.85 465.03 71.5 456.85 79.47 458.78 90.73 448.66 85.42 438.55 90.73 440.48 79.47 432.3 71.5 443.61 69.85 448.66 59.61" fill="#0071f2"></polygon>
      </g>
      <g>
        <polygon points="488.57 60.58 493.62 70.83 504.93 72.47 496.75 80.45 498.68 91.71 488.57 86.4 478.45 91.71 480.38 80.45 472.2 72.47 483.51 70.83 488.57 60.58" fill="#fff"></polygon>
        <polygon points="490.62 59.61 495.67 69.85 506.98 71.5 498.8 79.47 500.73 90.73 490.62 85.42 480.5 90.73 482.43 79.47 474.25 71.5 485.56 69.85 490.62 59.61" fill="#0071f2"></polygon>
      </g>
      <g>
        <polygon points="530.52 60.58 535.58 70.83 546.88 72.47 538.7 80.45 540.63 91.71 530.52 86.4 520.4 91.71 522.34 80.45 514.15 72.47 525.46 70.83 530.52 60.58" fill="#fff"></polygon>
        <polygon points="532.57 59.61 537.63 69.85 548.93 71.5 540.75 79.47 542.68 90.73 532.57 85.42 522.45 90.73 524.39 79.47 516.2 71.5 527.51 69.85 532.57 59.61" fill="#0071f2"></polygon>
      </g>
    </g>
    <g>
      <polygon points="360.79 564.89 368.79 564.89 360.79 564.94 360.79 564.89" fill="#fff"></polygon>
      <polygon points="477.5 304.28 475.79 339.29 474.6 363.73 474.58 364.02 469.78 462.58 467.78 503.44 465.47 550.73 360.97 550.73 361.96 470.5 373.59 423 374.53 419.14 384.19 379.68 384.22 379.53 385.6 373.91 386.35 370.85 394.03 339.47 398.82 319.89 402.77 303.73 408.41 300.62 415.81 296.53 415.96 296.45 429.31 289.08 429.39 289.03 456.44 274.1 461.84 281.84 474.84 300.47 475.15 300.93 477.5 304.28" fill="#fff"></polygon>
      <path d="M431.48,359.87s-9.88,25.99-15.83,50.72c-.81,3.35-1.54,6.68-2.17,9.92,0,.02,0,.03,0,.04-.67,3.44-1.21,6.78-1.6,9.93-.35,2.85-.56,5.55-.61,8.04l-.03,1.12-.43,19.28-1.79,79.58-9.92,12.24h-12.79l-8.75-12.8s1.75-43.48,6.92-78.35c.88-5.95,1.86-11.64,2.95-16.83,.6-2.9,1.25-5.64,1.92-8.17l.47-1.83,1.62-6.33,3.47-13.62,2.27-8.89,6.78-26.62,21.34-52.8,1.13-2.8,1.39-1.95,.13-.18,2.24-.02,9.73-.09s0,.11,0,.33c.02,2.39-.2,17.49-8.43,40.11Z" fill="#0071f2"></path>
      <path d="M424.18,292.46s1.12,5.62,3.93,10.67l-2.25,15.73s-7.86-8.99-7.86-16.29c0,0,1.12-5.62,6.18-10.11Z" fill="#0071f2"></path>
      <path d="M460.81,294.02l-12.54,11.68s-2.18,9.79-6.11,12.6l23.19-10.87,2.08-8.23-6.62-5.18Z" fill="#0071f2"></path>
      <path d="M480.91,272.8s-1.63-2.15-3.88-2.15c.05,.54-.07,1.1,0,1.68,.1,.75,.39,1.47,.51,2.16,1.12-.56,2.25-1.12,3.37-1.69Z" fill="#2f2e41"></path>
      <g opacity=".2">
        <path d="M480.91,272.8s-1.63-2.15-3.88-2.15c.05,.54-.07,1.1,0,1.68,.1,.75,.39,1.47,.51,2.16,1.12-.56,2.25-1.12,3.37-1.69Z"></path>
      </g>
      <path d="M477.51,274.32c0,.06,.02,.11,.03,.17l-24.22,11.34-2.18,1.02-12.36,13.48-17.97-21.34s3.93-3.37,3.93-10.67v-12.36l19.27-11.56,14.43-8.66,17.31-5.56,3.34,7.39s-3.77,24.89-1.58,36.76Z" fill="#f9b499"></path>
      <path d="M420.81,278.98l-7.3,5.62s1.69,12.92,4.49,17.97c0,0,5.04-12.39,12.64-12.08l-9.83-11.51Z" fill="#2f2e41"></path>
      <path d="M435.14,451.79l-.63-.17c12.16-46.34,37.18-83.93,39.74-87.71l-13.6-6.83,.29-.58,14.26,7.17-.21,.31c-.27,.39-27.13,39.29-39.86,87.81Z" fill="#ed1c24"></path>
      <path d="M607.29,493.55s-.85-13.57-3.45-33.11c-3.36-25.26-9.62-60.52-20.71-89.34,0,0-22.47-54.49-40.44-60.1,0,0-34.27-14.04-51.12-29.77,0,0-.98,.94-2.63,2.66-.03,.03-.05,.06-.07,.08-3.06,3.19-8.35,9-14.04,16.49-2.65,3.49-5.38,7.35-8.01,11.47-5.15,8.06-9.9,17.16-12.87,26.58,0,0-11.24,34.83-18.54,101.67l-.04,.72-.53,10.74-2.05,41.02-2.89,58.06h98.91l-2.97-42,64.6,3.37s8.47-.54,13.4-6.78c2.14-2.71,3.62-6.48,3.45-11.76Zm-67.96-74.71s13.48,33.71,14.6,43.25l-23.59,.56s.03-.15,.07-.43c.65-4.08,5.77-36.03,8.92-43.39Z" fill="#0071f2"></path>
      <path d="M418,302.58l-1.89,4.12-2.67,5.82-1.94,4.22-16.62,36.22-8.31,18.11-.02,.04-.25,3.41-.52,7.17v.17s-1.99,27.42-1.99,27.42l-.2,2.86-.06,.78-2.86,39.7-.37,5.09-.14,2.01-2.6,36.09s-1.12,31.64-.32,54.93h-25.14l2.99-110.54s-37.63,53.36-57.3,37.07c0,0-3.54-1.62-6.36-6.69-3.36-6.02-5.72-16.92,0-35.77,.82-2.72,1.81-5.6,2.99-8.65,0,0,13.48-33.7,29.77-57.85l26.96-43.81s8.81-26.98,52.05-31.88c.85-.1,1.66-.45,2.31-1.01l8-7s.02,.16,.07,.46c.02,.11,.04,.25,.06,.39t0,.01c.29,1.83,1.04,6.31,2.33,10.98,.57,2.08,1.25,4.2,2.04,6.13Z" fill="#0071f2"></path>
      <g opacity=".2">
        <path d="M380.32,458.41c-.26,0-.47-.2-.5-.46-.02-.23-2.07-22.9-7.41-36.7-.1-.26,.03-.55,.29-.65,.26-.1,.55,.03,.65,.29,5.39,13.93,7.45,36.74,7.47,36.97,.02,.27-.18,.52-.45,.54-.01,0-.03,0-.04,0Z"></path>
      </g>
      <path d="M448.33,303.14h-20.22l-2.25,15.73s19.66,10.67,22.47-15.73Z" fill="#e6e7e8"></path>
      <path d="M458.72,253.99c-5.57,13.46-28.1,11.84-33.98,11.85v-9.88l19.27-11.56,2.39-.61,12.32,10.2Z" fill="#f7a48b"></path>
      <path d="M481.78,185.67c0,1.71-.12,3.44-.37,5.18l-3.62,25.19-2.03,14.14c-.25,1.74-.62,3.43-1.1,5.07-4.97,16.95-21.78,28.12-39.77,25.53-19.73-2.84-33.43-21.14-30.6-40.87l5.65-39.32c2.84-19.73,21.14-33.43,40.87-30.6,18,2.58,30.97,18.03,30.97,35.69Z" fill="#f9b499"></path>
      <path d="M409.94,180.58s-21.14-13.94,5.82-34.16c0,0-3.93,.56-6.18-2.81,0,0,6.74,1.69,15.17-2.81,0,0,14.6-10.11,31.46-2.81,0,0-.56-.56-.56-4.49,0,0,2.81,5.62,16.85,6.74,0,0,18.54,1.12,21.91,16.85,0,0,20.78,8.43,11.23,39.32,0,0-2.97,19.05-14.4,22.44l-13.43-2.82s-9.23-8.39-7.55-21.31c0,0-12.36-6.74-16.85-21.34,0,0-1.12-14.04-19.66-13.48,0,0-18.94-1.9-23.79,20.68Z" fill="#2f2e41"></path>
      <path d="M480.98,197c-8.13,0-10.89-1.77-11.02-1.86-.23-.15-.29-.46-.14-.69,.15-.23,.46-.29,.69-.14,.04,.02,3.45,2.15,13.74,1.6,.28-.01,.51,.2,.53,.47,.01,.28-.2,.51-.47,.53-1.2,.06-2.3,.09-3.32,.09Z" fill="#fff"></path>
      <path d="M433.73,160.4h0c-.28,0-.5-.22-.5-.5,0-.12,.03-3.04,2.52-5.32,2.26-2.07,5.76-2.9,10.38-2.48,.28,.02,.48,.27,.45,.54-.02,.27-.27,.48-.54,.45-4.32-.39-7.55,.35-9.6,2.21-2.17,1.97-2.21,4.57-2.21,4.6,0,.27-.23,.5-.5,.5Z" fill="#fff"></path>
      <path d="M491.18,229.64c-2.53,6.22-8.66,9.6-13.69,7.55-1.1-.44-2.04-1.11-2.84-1.94,.48-1.63,.85-3.33,1.1-5.07l2.03-14.14c2.72-1.92,5.98-2.54,8.87-1.36,5.03,2.05,7.06,8.75,4.52,14.96Z" fill="#f9b499"></path>
      <path d="M489.34,283.48c-8.14,8.71-22.47,28.65-22.47,28.65-5.03-19.68-11.37-25-13.55-26.3l24.22-11.34c-.01-.06-.02-.11-.03-.17l3.4-1.52,8.43,10.67Z" fill="#2f2e41"></path>
      <g opacity=".2">
        <path d="M444.18,381.2c-.08,0-.16-.02-.23-.06-.24-.13-.34-.43-.21-.67,19.82-37.8,74.41-80.44,74.96-80.87,.22-.17,.53-.13,.7,.09,.17,.22,.13,.53-.09,.7-.55,.42-54.97,42.94-74.68,80.54-.09,.17-.26,.27-.44,.27Z"></path>
      </g>
      <g opacity=".2">
        <path d="M539.33,419.35c-.17,0-.33-.08-.42-.23-14.5-22.86-16.9-43.26-16.93-43.46-.03-.27,.17-.52,.44-.55,.28-.03,.52,.17,.55,.44,.02,.2,2.41,20.38,16.78,43.04,.15,.23,.08,.54-.15,.69-.08,.05-.18,.08-.27,.08Z"></path>
      </g>
      <g opacity=".2">
        <path d="M521.92,348.57s-.05,0-.08,0c-.27-.05-.46-.3-.41-.58,.19-1.11,4.69-27.31,17.76-31.29,.26-.08,.54,.07,.62,.33,.08,.26-.07,.54-.33,.62-12.47,3.8-17.02,30.23-17.07,30.5-.04,.24-.25,.42-.49,.42Z"></path>
      </g>
      <path d="M375.77,360.97s-1.02-10.65,3.47-24.69c0,0,3.37-13.48,.56-23.03l-1.68-5.71c-.68-2.32,.27-4.81,2.33-6.07,5.77-3.53,17.34-9.78,23.51-7.32,0,0,2.25,3.37-7.86,6.74l-8.99,5.06,3.93,11.23,6.62-13.74c.72-1.5,1.84-2.79,3.28-3.6,1.26-.71,2.89-1.21,4.75-.73,.85,.22,1.62,.65,2.31,1.19l10.01,7.9s3.37-2.25,8.43-.56l10.67,3.37s.56,3.93-6.18,4.49h-4.49l6.09,6.52c1.03,1.1,1.12,2.78,.21,3.99h0c-1.01,1.34-2.9,1.64-4.27,.68l-3.15-2.21-21.34,52.8s-4.14,6.38-8.25,5.44l-15.9-13.86-4.03-7.89Z" fill="#f9b499"></path>
      <path d="M426.43,315.99c-.15,0-.3-.07-.4-.2l-5.6-7.6c-.16-.22-.12-.54,.11-.7,.22-.16,.54-.12,.7,.11l5.6,7.6c.16,.22,.12,.54-.11,.7-.09,.07-.19,.1-.3,.1Z" fill="#f7a48b"></path>
      <path d="M419.69,324.98s-.08,0-.11-.01c-6.83-1.58-6.25-9.95-6.03-11.85l-9.79-4.47c-.25-.11-.36-.41-.25-.66,.11-.25,.41-.36,.66-.25l10.13,4.62c.21,.09,.32,.32,.29,.54-.06,.38-1.46,9.02,4.65,10.94l1.05-12.65-2.64-2.64c-.2-.2-.2-.51,0-.71s.51-.2,.71,0l2.81,2.81c.1,.1,.16,.25,.14,.4l-1.12,13.48c-.01,.14-.09,.28-.2,.36-.09,.06-.19,.1-.29,.1Z" fill="#f7a48b"></path>
      <path d="M398.34,321.05c-.1,0-.2-.03-.29-.1-.22-.16-.27-.47-.11-.7l7.99-11.03c.16-.22,.47-.27,.7-.11,.22,.16,.27,.47,.11,.7l-7.99,11.03c-.1,.13-.25,.21-.41,.21Z" fill="#f7a48b"></path>
      <path d="M405.64,326.1c-.09,0-.19-.03-.28-.08-.23-.15-.29-.46-.14-.69l8.45-12.79c.15-.23,.46-.29,.69-.14,.23,.15,.29,.46,.14,.69l-8.45,12.79c-.1,.15-.26,.22-.42,.22Z" fill="#f7a48b"></path>
      <path d="M410.7,328.91c-.1,0-.21-.03-.29-.1-.22-.16-.27-.48-.11-.7l4.81-6.6c.16-.22,.48-.27,.7-.11,.22,.16,.27,.48,.11,.7l-4.81,6.6c-.1,.13-.25,.21-.4,.21Z" fill="#f7a48b"></path>
      <path d="M425.3,324.98c-.13,0-.26-.05-.35-.15l-4.81-4.82c-.19-.2-.19-.51,0-.71,.2-.2,.51-.19,.71,0l4.81,4.82c.19,.2,.19,.51,0,.71-.1,.1-.23,.15-.35,.15Z" fill="#f7a48b"></path>
      <path d="M394.41,360.37s-.08,0-.12-.02c-.27-.07-.43-.34-.36-.61,1.64-6.57-1.66-31.58-1.7-31.83-.04-.27,.16-.52,.43-.56,.27-.03,.53,.16,.56,.43,.14,1.04,3.36,25.45,1.67,32.2-.06,.23-.26,.38-.48,.38Z" fill="#f7a48b"></path>
      <path d="M296.2,442.99s7.01-22.39,26.28-36.76c0,0,34.05-28.81,44.32-42.73,0,0,25.64,16.59,25.4,36.81l-37.55,40-58.45,2.68Z" fill="#0071f2"></path>
      <path d="M368.78,364.59l4.84-5.29s20.78,16.29,24.71,28.65l-6.26,8.49s-.62-14.76-23.3-31.85Z" fill="#fff"></path>
      <g opacity=".2">
        <path d="M296.2,443.49s-.1,0-.15-.02c-.26-.08-.41-.36-.33-.63,.07-.23,7.28-22.71,26.45-37.02,.32-.27,34.09-28.91,44.22-42.63,.16-.21,.45-.27,.67-.12,.26,.17,25.87,16.98,25.63,37.24,0,.12-.05,.25-.14,.34l-37.55,40c-.19,.2-.51,.21-.71,.02-.2-.19-.21-.51-.02-.71l37.41-39.86c.06-18.27-21.6-33.76-24.79-35.93-10.52,13.95-43.78,42.15-44.11,42.43-18.93,14.13-26.05,36.31-26.12,36.53-.07,.21-.26,.35-.48,.35Z"></path>
      </g>
      <path d="M406.36,451.14c1.27,.17,2.31,1.07,2.68,2.29,2.49,8.23,12.68,39.08,25.82,39.57h7.3l5.62-23.59-.14-3.55s-5.48-1.5-8.29-11.05c0,0-7.3-29.21-12.92-33.14l-18.07-18.54c-1.94-2-4.97-2.48-7.44-1.18l-15.94,8.37c-1.32,.69-1.84,2.31-1.17,3.64h0c.6,1.21,2,1.79,3.28,1.38l12.97-4.19c2.37-.77,4.97-.06,6.63,1.79l6.82,7.62s-32.58,4.49-27.52,14.04c0,0-2.25,5.06-.56,9.55l-6.22,11.1c-.92,1.64-.37,3.71,1.24,4.68h0c1.54,.93,3.54,.52,4.6-.94l5.97-8.2c.71-.97,1.9-1.48,3.09-1.32l12.25,1.69Z" fill="#f9b499"></path>
      <path d="M385.98,435.07c-.17,0-.33-.08-.42-.23-.15-.23-.08-.54,.16-.69,.11-.07,11.02-6.81,27.31-4,.27,.05,.45,.31,.41,.58-.05,.27-.3,.45-.58,.41-15.89-2.74-26.5,3.8-26.61,3.86-.08,.05-.17,.08-.27,.08Z" fill="#f7a48b"></path>
      <path d="M425.4,420.94h0c-.1,0-10.22-.32-11.89-.32-.05,0-.09-.04-.09-.09s.04-.09,.09-.09c1.67,0,11.79,.31,11.89,.32,.05,0,.09,.04,.09,.1,0,.05-.04,.09-.09,.09Z" fill="#f7a48b"></path>
      <path d="M385.42,444.62c-.11,0-.22-.04-.31-.11-.21-.17-.25-.48-.08-.7,.17-.21,4.34-5.25,26.25-4.69,.28,0,.49,.24,.49,.51,0,.28-.26,.49-.51,.49-21.22-.54-25.4,4.26-25.43,4.31-.1,.12-.24,.18-.39,.18Z" fill="#f7a48b"></path>
      <path d="M444.96,495.24h-4.49s.56-24.71,8.43-30.89l6.13-.25s-10.62,11.48-10.06,31.14Z" fill="#fff"></path>
      <path d="M525.85,508.72l-80.32-7.3c-3.93-23.59,10.67-38.76,10.67-38.76l97.74-.56s23.59,.56,29.77,11.23l-57.86,35.39Z" fill="#0071f2"></path>
      <g opacity=".2">
        <path d="M525.85,509.22s-.03,0-.05,0l-80.32-7.3c-.23-.02-.41-.19-.45-.42-3.93-23.57,10.66-39.03,10.81-39.19,.09-.1,.22-.15,.36-.15l97.74-.56c.99,.02,23.96,.69,30.21,11.48,.14,.24,.06,.54-.18,.68-.24,.14-.55,.06-.68-.18-5.97-10.31-29.12-10.98-29.35-10.98l-97.5,.56c-1.47,1.63-13.89,16.19-10.46,37.8l79.94,7.27c.28,.02,.48,.27,.45,.54-.02,.26-.24,.45-.5,.45Z"></path>
      </g>
    </g>
    <g>
      <rect x="354.84" y="567.35" width="185.6" height="66" fill="#0071f2"></rect>
      <rect x="357.64" y="570.15" width="180" height="60.4" fill="#fffdfd"></rect>
      <g>
        <path d="M395.79,585.26v3.06h4.93v2.84h-4.93v3.32h5.58v2.95h-9.26v-15.11h9.26v2.95h-5.58Z" fill="#0071f2"></path>
        <path d="M420.87,582.31v15.11h-3.68v-9.06l-3.38,9.06h-2.97l-3.4-9.08v9.08h-3.68v-15.11h4.35l4.24,10.46,4.2-10.46h4.33Z" fill="#0071f2"></path>
        <path d="M434.43,589.58c-.4,.72-1.02,1.31-1.85,1.75-.83,.45-1.87,.67-3.1,.67h-2.28v5.42h-3.68v-15.11h5.96c1.21,0,2.22,.21,3.06,.62,.83,.42,1.46,.99,1.87,1.72,.42,.73,.62,1.57,.62,2.52,0,.88-.2,1.68-.6,2.4Zm-3.66-1c.34-.33,.52-.8,.52-1.4s-.17-1.07-.52-1.4c-.34-.33-.87-.5-1.57-.5h-2v3.79h2c.7,0,1.23-.16,1.57-.5Z" fill="#0071f2"></path>
        <path d="M440.63,594.58h4.82v2.84h-8.5v-15.11h3.68v12.27Z" fill="#0071f2"></path>
        <path d="M450.46,596.58c-1.18-.66-2.12-1.58-2.82-2.77-.7-1.18-1.04-2.51-1.04-3.99s.35-2.81,1.04-3.98c.7-1.18,1.64-2.1,2.82-2.76,1.18-.66,2.49-.99,3.91-.99s2.72,.33,3.91,.99c1.18,.66,2.12,1.58,2.8,2.76,.68,1.18,1.02,2.5,1.02,3.98s-.34,2.81-1.03,3.99c-.69,1.18-1.62,2.11-2.8,2.77-1.18,.66-2.48,.99-3.9,.99s-2.72-.33-3.91-.99Zm6.8-3.57c.72-.8,1.09-1.87,1.09-3.19s-.36-2.4-1.09-3.2c-.72-.8-1.69-1.19-2.9-1.19s-2.19,.39-2.92,1.18c-.72,.79-1.09,1.86-1.09,3.21s.36,2.4,1.09,3.2c.72,.8,1.7,1.19,2.92,1.19s2.17-.4,2.9-1.21Z" fill="#0071f2"></path>
        <path d="M477.1,582.31l-5.23,10.12v4.99h-3.68v-4.99l-5.23-10.12h4.18l2.93,6.33,2.91-6.33h4.13Z" fill="#0071f2"></path>
        <path d="M482.26,585.26v3.06h4.93v2.84h-4.93v3.32h5.58v2.95h-9.26v-15.11h9.26v2.95h-5.58Z" fill="#0071f2"></path>
        <path d="M493.91,585.26v3.06h4.93v2.84h-4.93v3.32h5.58v2.95h-9.26v-15.11h9.26v2.95h-5.58Z" fill="#0071f2"></path>
        <path d="M372.89,617.62c-1.18-.66-2.12-1.58-2.82-2.77-.7-1.18-1.04-2.51-1.04-3.99s.35-2.81,1.04-3.98c.7-1.18,1.64-2.1,2.82-2.76,1.18-.66,2.49-.99,3.91-.99s2.72,.33,3.91,.99c1.18,.66,2.12,1.58,2.8,2.76,.68,1.18,1.02,2.5,1.02,3.98s-.34,2.81-1.03,3.99c-.69,1.18-1.62,2.11-2.8,2.77-1.18,.66-2.48,.99-3.9,.99s-2.72-.33-3.91-.99Zm6.8-3.57c.72-.8,1.09-1.87,1.09-3.19s-.36-2.4-1.09-3.2c-.72-.8-1.69-1.19-2.9-1.19s-2.19,.39-2.92,1.18c-.72,.79-1.09,1.86-1.09,3.21s.36,2.4,1.09,3.2c.72,.8,1.7,1.19,2.92,1.19s2.17-.4,2.9-1.21Z" fill="#0071f2"></path>
        <path d="M396.41,603.34v2.95h-6.16v3.19h4.61v2.86h-4.61v6.11h-3.68v-15.11h9.84Z" fill="#0071f2"></path>
        <path d="M413.78,603.34v2.95h-4v12.16h-3.68v-12.16h-4v-2.95h11.69Z" fill="#0071f2"></path>
        <path d="M428.72,603.34v15.11h-3.68v-6.22h-5.73v6.22h-3.68v-15.11h3.68v5.92h5.73v-5.92h3.68Z" fill="#0071f2"></path>
        <path d="M435.05,606.29v3.06h4.93v2.84h-4.93v3.32h5.58v2.95h-9.26v-15.11h9.26v2.95h-5.58Z" fill="#0071f2"></path>
        <path d="M464.69,603.34v15.11h-3.68v-9.06l-3.38,9.06h-2.97l-3.4-9.08v9.08h-3.68v-15.11h4.35l4.24,10.46,4.2-10.46h4.33Z" fill="#0071f2"></path>
        <path d="M470.58,617.62c-1.18-.66-2.12-1.58-2.82-2.77-.7-1.18-1.04-2.51-1.04-3.99s.35-2.81,1.04-3.98c.7-1.18,1.64-2.1,2.82-2.76,1.18-.66,2.49-.99,3.91-.99s2.72,.33,3.91,.99c1.18,.66,2.12,1.58,2.8,2.76,.68,1.18,1.02,2.5,1.02,3.98s-.34,2.81-1.03,3.99c-.69,1.18-1.62,2.11-2.8,2.77-1.18,.66-2.48,.99-3.9,.99s-2.72-.33-3.91-.99Zm6.8-3.57c.72-.8,1.09-1.87,1.09-3.19s-.36-2.4-1.09-3.2c-.72-.8-1.69-1.19-2.9-1.19s-2.19,.39-2.92,1.18c-.72,.79-1.09,1.86-1.09,3.21s.36,2.4,1.09,3.2c.72,.8,1.7,1.19,2.92,1.19s2.17-.4,2.9-1.21Z" fill="#0071f2"></path>
        <path d="M497.77,618.46h-3.68l-6.16-9.32v9.32h-3.68v-15.11h3.68l6.16,9.36v-9.36h3.68v15.11Z" fill="#0071f2"></path>
        <path d="M511.31,603.34v2.95h-4v12.16h-3.68v-12.16h-4v-2.95h11.69Z" fill="#0071f2"></path>
        <path d="M526.25,603.34v15.11h-3.68v-6.22h-5.73v6.22h-3.68v-15.11h3.68v5.92h5.73v-5.92h3.68Z" fill="#0071f2"></path>
      </g>
    </g>
  </g>
</svg>
